<svg xmlns="http://www.w3.org/2000/svg" viewBox="0 0 2256 2256" width="564" height="564" aria-label="Logo">
  <title>Logo</title>
  <g fill="#FFFFFF" fill-rule="evenodd">
    <path d="M 776.391 1453.313 C 776.322 1453.275, 776.282 1453.172, 776.275 1453.076 C 776.266 1452.938, 776.359 1452.743, 776.442 1452.557 C 776.549 1452.317, 776.722 1452.048, 776.900 1451.771 C 777.111 1451.440, 777.369 1451.084, 777.639 1450.714 C 777.945 1450.295, 778.289 1449.849, 778.647 1449.390 C 779.044 1448.884, 779.473 1448.352, 779.919 1447.808 C 780.403 1447.218, 780.914 1446.602, 781.447 1445.978 C 782.016 1445.310, 782.618 1444.625, 783.233 1443.925 C 783.883 1443.185, 784.558 1442.424, 785.251 1441.653 C 785.977 1440.844, 786.730 1440.020, 787.493 1439.181 C 788.287 1438.309, 789.100 1437.415, 789.928 1436.513 C 790.784 1435.582, 791.660 1434.633, 792.550 1433.680 C 793.465 1432.700, 794.404 1431.712, 795.347 1430.712 C 796.311 1429.690, 797.288 1428.653, 798.273 1427.612 C 799.275 1426.552, 800.291 1425.482, 801.309 1424.407 C 802.341 1423.319, 803.381 1422.219, 804.426 1421.121 C 805.479 1420.014, 806.539 1418.900, 807.601 1417.789 C 808.667 1416.675, 809.739 1415.557, 810.808 1414.445 C 811.877 1413.335, 812.946 1412.222, 814.015 1411.121 C 815.076 1410.027, 816.146 1408.943, 817.199 1407.861 C 818.239 1406.793, 819.273 1405.725, 820.297 1404.673 C 821.301 1403.642, 822.301 1402.617, 823.284 1401.610 C 824.241 1400.630, 825.182 1399.676, 826.118 1398.708 C 827.048 1397.749, 827.964 1396.791, 828.883 1395.828 C 829.801 1394.866, 830.714 1393.899, 831.628 1392.933 C 832.543 1391.968, 833.459 1391.003, 834.371 1390.036 C 835.283 1389.068, 836.194 1388.100, 837.103 1387.129 C 838.011 1386.158, 838.917 1385.184, 839.822 1384.210 C 840.728 1383.236, 841.631 1382.259, 842.536 1381.286 C 843.442 1380.312, 844.352 1379.341, 845.257 1378.367 C 846.163 1377.393, 847.067 1376.418, 847.970 1375.441 C 848.873 1374.465, 849.774 1373.487, 850.676 1372.510 C 851.578 1371.533, 852.483 1370.557, 853.384 1369.579 C 854.285 1368.601, 855.185 1367.622, 856.082 1366.640 C 856.979 1365.658, 857.873 1364.673, 858.766 1363.688 C 859.659 1362.702, 860.549 1361.714, 861.441 1360.728 C 862.334 1359.742, 863.228 1358.756, 864.123 1357.772 C 865.019 1356.789, 865.918 1355.810, 866.814 1354.829 C 867.710 1353.847, 868.606 1352.864, 869.500 1351.881 C 870.395 1350.898, 871.288 1349.914, 872.181 1348.930 C 873.074 1347.946, 873.967 1346.962, 874.859 1345.977 C 875.751 1344.992, 876.641 1344.005, 877.532 1343.019 C 878.422 1342.033, 879.310 1341.044, 880.202 1340.059 C 881.094 1339.074, 881.989 1338.092, 882.885 1337.110 C 883.781 1336.129, 884.680 1335.149, 885.579 1334.170 C 886.478 1333.191, 887.378 1332.213, 888.279 1331.236 C 889.180 1330.259, 890.085 1329.284, 890.986 1328.307 C 891.888 1327.331, 892.790 1326.354, 893.689 1325.374 C 894.587 1324.395, 895.481 1323.411, 896.380 1322.432 C 897.278 1321.452, 898.180 1320.475, 899.080 1319.497 C 899.980 1318.518, 900.878 1317.538, 901.779 1316.561 C 902.680 1315.583, 903.585 1314.609, 904.486 1313.631 C 905.387 1312.653, 906.285 1311.673, 907.185 1310.693 C 908.085 1309.714, 908.984 1308.735, 909.884 1307.756 C 910.784 1306.776, 911.685 1305.796, 912.585 1304.815 C 913.485 1303.834, 914.386 1302.854, 915.283 1301.869 C 916.179 1300.885, 917.071 1299.897, 917.964 1298.909 C 918.857 1297.921, 919.750 1296.932, 920.642 1295.942 C 921.534 1294.952, 922.424 1293.959, 923.317 1292.968 C 924.210 1291.976, 925.107 1290.987, 925.999 1289.993 C 926.891 1289.000, 927.778 1288.003, 928.667 1287.007 C 929.557 1286.010, 930.447 1285.013, 931.335 1284.014 C 932.222 1283.014, 933.107 1282.012, 933.993 1281.010 C 934.880 1280.006, 935.770 1279.004, 936.655 1277.996 C 937.540 1276.987, 938.426 1275.975, 939.303 1274.959 C 940.179 1273.943, 941.044 1272.922, 941.915 1271.900 C 942.788 1270.875, 943.667 1269.849, 944.535 1268.818 C 945.402 1267.787, 946.269 1266.756, 947.121 1265.714 C 947.972 1264.674, 948.810 1263.625, 949.644 1262.572 C 950.478 1261.520, 951.308 1260.464, 952.123 1259.398 C 952.938 1258.332, 953.739 1257.257, 954.534 1256.176 C 955.331 1255.093, 956.122 1254.002, 956.900 1252.905 C 957.676 1251.810, 958.445 1250.709, 959.198 1249.600 C 959.948 1248.493, 960.688 1247.380, 961.409 1246.256 C 962.129 1245.132, 962.833 1243.997, 963.521 1242.856 C 964.208 1241.717, 964.881 1240.571, 965.532 1239.416 C 966.180 1238.265, 966.810 1237.107, 967.419 1235.940 C 968.027 1234.775, 968.617 1233.601, 969.184 1232.418 C 969.749 1231.237, 970.292 1230.045, 970.816 1228.847 C 971.340 1227.650, 971.846 1226.445, 972.326 1225.233 C 972.805 1224.024, 973.265 1222.809, 973.696 1221.585 C 974.126 1220.362, 974.531 1219.129, 974.910 1217.891 C 975.287 1216.657, 975.636 1215.415, 975.962 1214.168 C 976.287 1212.923, 976.591 1211.673, 976.863 1210.417 C 977.134 1209.161, 977.374 1207.898, 977.590 1206.631 C 977.807 1205.365, 977.999 1204.092, 978.159 1202.819 C 978.319 1201.549, 978.446 1200.277, 978.550 1199.003 C 978.655 1197.729, 978.738 1196.452, 978.787 1195.174 C 978.836 1193.895, 978.855 1192.613, 978.844 1191.332 C 978.832 1190.049, 978.792 1188.763, 978.720 1187.481 C 978.649 1186.197, 978.547 1184.914, 978.417 1183.633 C 978.287 1182.350, 978.128 1181.067, 977.940 1179.789 C 977.752 1178.508, 977.532 1177.228, 977.290 1175.954 C 977.048 1174.680, 976.781 1173.409, 976.487 1172.143 C 976.192 1170.873, 975.869 1169.606, 975.524 1168.346 C 975.179 1167.085, 974.810 1165.829, 974.419 1164.579 C 974.026 1163.326, 973.610 1162.078, 973.172 1160.837 C 972.734 1159.594, 972.270 1158.358, 971.790 1157.128 C 971.309 1155.896, 970.809 1154.670, 970.290 1153.451 C 969.770 1152.228, 969.232 1151.010, 968.673 1149.802 C 968.114 1148.592, 967.528 1147.392, 966.935 1146.196 C 966.343 1144.999, 965.739 1143.808, 965.118 1142.625 C 964.495 1141.440, 963.852 1140.265, 963.205 1139.093 C 962.556 1137.921, 961.902 1136.752, 961.230 1135.592 C 960.557 1134.431, 959.865 1133.278, 959.171 1132.129 C 958.477 1130.981, 957.778 1129.839, 957.068 1128.701 C 956.359 1127.564, 955.639 1126.433, 954.915 1125.305 C 954.191 1124.178, 953.463 1123.055, 952.726 1121.936 C 951.989 1120.817, 951.242 1119.703, 950.493 1118.591 C 949.743 1117.478, 948.985 1116.368, 948.229 1115.261 C 947.475 1114.155, 946.723 1113.053, 945.962 1111.953 C 945.200 1110.852, 944.429 1109.755, 943.658 1108.659 C 942.888 1107.563, 942.109 1106.474, 941.339 1105.379 C 940.571 1104.286, 939.810 1103.190, 939.043 1102.097 C 938.277 1101.005, 937.504 1099.917, 936.738 1098.825 C 935.974 1097.734, 935.217 1096.639, 934.452 1095.548 C 933.688 1094.457, 932.917 1093.369, 932.152 1092.278 C 931.388 1091.187, 930.627 1090.094, 929.866 1089.001 C 929.104 1087.909, 928.342 1086.817, 927.582 1085.724 C 926.822 1084.631, 926.063 1083.538, 925.306 1082.443 C 924.549 1081.348, 923.793 1080.252, 923.040 1079.154 C 922.287 1078.057, 921.532 1076.960, 920.790 1075.856 C 920.049 1074.752, 919.323 1073.640, 918.590 1072.530 C 917.858 1071.420, 917.125 1070.310, 916.396 1069.198 C 915.668 1068.086, 914.940 1066.974, 914.220 1065.857 C 913.500 1064.741, 912.790 1063.619, 912.077 1062.498 C 911.365 1061.377, 910.649 1060.257, 909.946 1059.130 C 909.243 1058.004, 908.552 1056.872, 907.859 1055.740 C 907.167 1054.608, 906.477 1053.474, 905.791 1052.339 C 905.105 1051.203, 904.421 1050.066, 903.743 1048.926 C 903.065 1047.786, 902.392 1046.645, 901.725 1045.500 C 901.057 1044.355, 900.398 1043.204, 899.739 1042.054 C 899.081 1040.904, 898.421 1039.754, 897.771 1038.600 C 897.121 1037.446, 896.481 1036.288, 895.840 1035.129 C 895.200 1033.971, 894.560 1032.812, 893.927 1031.649 C 893.294 1030.487, 892.665 1029.322, 892.040 1028.155 C 891.416 1026.988, 890.793 1025.820, 890.179 1024.648 C 889.564 1023.477, 888.957 1022.302, 888.353 1021.125 C 887.750 1019.948, 887.153 1018.768, 886.556 1017.587 C 885.959 1016.406, 885.361 1015.224, 884.771 1014.039 C 884.181 1012.854, 883.596 1011.666, 883.017 1010.476 C 882.438 1009.286, 881.865 1008.094, 881.296 1006.899 C 880.728 1005.704, 880.165 1004.506, 879.607 1003.306 C 879.049 1002.107, 878.496 1000.905, 877.949 999.701 C 877.402 998.498, 876.861 997.293, 876.325 996.084 C 875.788 994.875, 875.259 993.661, 874.730 992.447 C 874.202 991.233, 873.673 990.019, 873.153 988.801 C 872.633 987.583, 872.122 986.360, 871.613 985.137 C 871.104 983.914, 870.594 982.692, 870.097 981.465 C 869.600 980.238, 869.113 979.006, 868.631 977.773 C 868.150 976.540, 867.674 975.305, 867.209 974.066 C 866.744 972.827, 866.287 971.585, 865.840 970.340 C 865.392 969.095, 864.957 967.847, 864.525 966.596 C 864.092 965.343, 863.665 964.087, 863.247 962.829 C 862.829 961.571, 862.419 960.312, 862.016 959.048 C 861.612 957.783, 861.214 956.513, 860.825 955.241 C 860.436 953.970, 860.049 952.697, 859.681 951.419 C 859.314 950.141, 858.967 948.858, 858.620 947.575 C 858.273 946.292, 857.930 945.009, 857.600 943.721 C 857.270 942.430, 856.952 941.134, 856.640 939.837 C 856.329 938.540, 856.022 937.241, 855.730 935.939 C 855.438 934.636, 855.158 933.330, 854.887 932.023 C 854.615 930.716, 854.350 929.409, 854.101 928.097 C 853.852 926.783, 853.618 925.464, 853.393 924.144 C 853.168 922.822, 852.950 921.497, 852.751 920.170 C 852.553 918.844, 852.368 917.518, 852.203 916.187 C 852.037 914.853, 851.895 913.512, 851.757 912.173 C 851.620 910.835, 851.485 909.497, 851.377 908.156 C 851.270 906.814, 851.184 905.469, 851.114 904.124 C 851.044 902.780, 850.993 901.435, 850.958 900.088 C 850.923 898.740, 850.898 897.388, 850.904 896.040 C 850.910 894.694, 850.942 893.350, 850.991 892.007 C 851.041 890.667, 851.107 889.328, 851.199 887.991 C 851.291 886.653, 851.405 885.315, 851.546 883.982 C 851.688 882.652, 851.856 881.323, 852.047 880.002 C 852.237 878.683, 852.446 877.369, 852.686 876.062 C 852.926 874.756, 853.193 873.455, 853.488 872.163 C 853.782 870.871, 854.104 869.584, 854.451 868.310 C 854.797 867.042, 855.166 865.785, 855.567 864.537 C 855.967 863.292, 856.394 862.054, 856.852 860.830 C 857.309 859.610, 857.795 858.399, 858.310 857.205 C 858.824 856.015, 859.368 854.837, 859.940 853.678 C 860.509 852.523, 861.105 851.383, 861.732 850.263 C 862.356 849.148, 863.006 848.048, 863.690 846.973 C 864.373 845.899, 865.088 844.844, 865.830 843.814 C 866.571 842.786, 867.341 841.782, 868.136 840.798 C 868.931 839.815, 869.752 838.847, 870.600 837.911 C 871.447 836.976, 872.323 836.066, 873.222 835.184 C 874.120 834.303, 875.044 833.449, 875.989 832.620 C 876.934 831.792, 877.899 830.989, 878.889 830.213 C 879.883 829.435, 880.902 828.684, 881.940 827.960 C 882.983 827.233, 884.049 826.532, 885.134 825.862 C 886.221 825.191, 887.330 824.547, 888.456 823.937 C 889.583 823.327, 890.731 822.752, 891.893 822.202 C 893.057 821.652, 894.240 821.133, 895.435 820.638 C 896.634 820.141, 897.849 819.669, 899.073 819.229 C 900.299 818.788, 901.539 818.378, 902.786 817.995 C 904.034 817.612, 905.291 817.260, 906.558 816.933 C 907.831 816.604, 909.118 816.304, 910.408 816.030 C 911.700 815.755, 912.998 815.504, 914.304 815.285 C 915.614 815.064, 916.934 814.879, 918.257 814.710 C 919.583 814.542, 920.918 814.396, 922.251 814.275 C 923.583 814.153, 924.916 814.055, 926.251 813.983 C 927.587 813.911, 928.924 813.868, 930.263 813.841 C 931.605 813.814, 932.951 813.806, 934.296 813.821 C 935.641 813.836, 936.987 813.876, 938.331 813.931 C 939.675 813.987, 941.019 814.064, 942.361 814.154 C 943.702 814.244, 945.043 814.348, 946.381 814.471 C 947.719 814.595, 949.054 814.738, 950.389 814.894 C 951.724 815.050, 953.059 815.223, 954.390 815.407 C 955.717 815.590, 957.041 815.785, 958.363 815.995 C 959.685 816.206, 961.004 816.434, 962.321 816.669 C 963.639 816.905, 964.957 817.148, 966.269 817.410 C 967.580 817.672, 968.885 817.956, 970.190 818.241 C 971.495 818.525, 972.800 818.812, 974.101 819.116 C 975.402 819.422, 976.702 819.745, 977.998 820.071 C 979.292 820.397, 980.582 820.729, 981.869 821.071 C 983.155 821.413, 984.438 821.764, 985.719 822.122 C 987.001 822.481, 988.282 822.848, 989.560 823.223 C 990.836 823.597, 992.110 823.980, 993.381 824.370 C 994.651 824.761, 995.918 825.159, 997.182 825.566 C 998.446 825.973, 999.707 826.388, 1000.965 826.813 C 1002.224 827.237, 1003.480 827.673, 1004.734 828.111 C 1005.987 828.550, 1007.238 828.990, 1008.486 829.443 C 1009.733 829.896, 1010.978 830.359, 1012.220 830.829 C 1013.462 831.299, 1014.701 831.779, 1015.938 832.264 C 1017.175 832.749, 1018.410 833.241, 1019.643 833.739 C 1020.876 834.237, 1022.106 834.741, 1023.334 835.251 C 1024.561 835.761, 1025.786 836.279, 1027.009 836.800 C 1028.232 837.320, 1029.453 837.846, 1030.672 838.374 C 1031.891 838.903, 1033.110 839.428, 1034.323 839.970 C 1035.536 840.512, 1036.742 841.070, 1037.950 841.624 C 1039.157 842.178, 1040.364 842.733, 1041.568 843.294 C 1042.771 843.853, 1043.972 844.417, 1045.172 844.984 C 1046.372 845.551, 1047.571 846.120, 1048.767 846.697 C 1049.963 847.273, 1051.157 847.853, 1052.348 848.441 C 1053.539 849.030, 1054.726 849.626, 1055.912 850.225 C 1057.098 850.825, 1058.280 851.432, 1059.462 852.038 C 1060.643 852.643, 1061.824 853.247, 1063.003 853.856 C 1064.181 854.466, 1065.359 855.076, 1066.533 855.695 C 1067.707 856.314, 1068.878 856.941, 1070.046 857.572 C 1071.214 858.202, 1072.379 858.838, 1073.543 859.475 C 1074.706 860.113, 1075.870 860.751, 1077.029 861.397 C 1078.188 862.043, 1079.344 862.696, 1080.498 863.352 C 1081.652 864.009, 1082.804 864.671, 1083.952 865.337 C 1085.100 866.003, 1086.244 866.674, 1087.387 867.349 C 1088.530 868.025, 1089.670 868.707, 1090.809 869.390 C 1091.949 870.074, 1093.089 870.758, 1094.225 871.448 C 1095.361 872.137, 1096.494 872.829, 1097.624 873.527 C 1098.754 874.226, 1099.879 874.932, 1101.005 875.638 C 1102.130 876.343, 1103.256 877.049, 1104.377 877.762 C 1105.498 878.474, 1106.615 879.193, 1107.731 879.913 C 1108.848 880.633, 1109.966 881.355, 1111.078 882.083 C 1112.190 882.812, 1113.295 883.550, 1114.404 884.283 C 1115.513 885.018, 1116.626 885.749, 1117.733 886.488 C 1118.841 887.227, 1119.945 887.970, 1121.048 888.715 C 1122.150 889.461, 1123.249 890.210, 1124.348 890.961 C 1125.448 891.712, 1126.546 892.470, 1127.645 893.222 C 1128.744 893.974, 1129.833 894.718, 1130.943 895.473 C 1132.072 896.240, 1133.216 896.999, 1134.364 897.787 C 1135.540 898.594, 1136.727 899.423, 1137.918 900.260 C 1139.128 901.111, 1140.348 901.979, 1141.566 902.854 C 1142.798 903.738, 1144.037 904.632, 1145.267 905.537 C 1146.505 906.447, 1147.738 907.376, 1148.970 908.300 C 1150.202 909.223, 1151.436 910.150, 1152.658 911.079 C 1153.874 912.004, 1155.085 912.935, 1156.286 913.862 C 1157.475 914.780, 1158.659 915.699, 1159.828 916.614 C 1160.980 917.516, 1162.123 918.419, 1163.250 919.314 C 1164.356 920.192, 1165.451 921.068, 1166.528 921.934 C 1167.580 922.780, 1168.621 923.619, 1169.639 924.450 C 1170.628 925.257, 1171.603 926.058, 1172.554 926.847 C 1173.473 927.609, 1174.377 928.363, 1175.253 929.105 C 1176.094 929.817, 1176.917 930.523, 1177.712 931.214 C 1178.469 931.871, 1179.208 932.519, 1179.917 933.151 C 1180.585 933.747, 1181.235 934.333, 1181.854 934.902 C 1182.430 935.432, 1182.984 935.956, 1183.510 936.452 C 1183.992 936.907, 1184.463 937.345, 1184.890 937.767 C 1185.275 938.147, 1185.641 938.518, 1185.964 938.868 C 1186.245 939.172, 1186.514 939.466, 1186.729 939.741 C 1186.906 939.966, 1187.081 940.186, 1187.178 940.383 C 1187.250 940.529, 1187.336 940.691, 1187.308 940.791 C 1187.287 940.869, 1187.206 940.935, 1187.121 940.960 C 1187.001 940.995, 1186.807 940.928, 1186.624 940.878 C 1186.382 940.813, 1186.097 940.694, 1185.806 940.567 C 1185.458 940.414, 1185.078 940.215, 1184.683 940.010 C 1184.232 939.777, 1183.746 939.516, 1183.249 939.236 C 1182.699 938.926, 1182.123 938.579, 1181.529 938.224 C 1180.884 937.838, 1180.210 937.429, 1179.521 937.003 C 1178.785 936.548, 1178.023 936.068, 1177.246 935.575 C 1176.423 935.053, 1175.576 934.509, 1174.716 933.950 C 1173.815 933.363, 1172.896 932.748, 1171.959 932.129 C 1170.983 931.486, 1169.984 930.828, 1168.972 930.159 C 1167.925 929.467, 1166.856 928.762, 1165.780 928.044 C 1164.673 927.306, 1163.551 926.549, 1162.420 925.787 C 1161.263 925.006, 1160.091 924.214, 1158.912 923.414 C 1157.712 922.600, 1156.501 921.772, 1155.284 920.942 C 1154.051 920.102, 1152.807 919.255, 1151.561 918.406 C 1150.304 917.549, 1149.037 916.688, 1147.774 915.823 C 1146.506 914.956, 1145.240 914.075, 1143.969 913.208 C 1142.699 912.342, 1141.420 911.482, 1140.152 910.623 C 1138.892 909.769, 1137.634 908.912, 1136.384 908.067 C 1135.149 907.233, 1133.919 906.399, 1132.699 905.584 C 1131.499 904.783, 1130.303 903.989, 1129.121 903.216 C 1127.969 902.463, 1126.841 901.721, 1125.696 901.003 C 1124.565 900.294, 1123.429 899.621, 1122.294 898.933 C 1121.158 898.244, 1120.023 897.553, 1118.883 896.871 C 1117.743 896.190, 1116.599 895.514, 1115.453 894.842 C 1114.307 894.171, 1113.156 893.508, 1112.006 892.843 C 1110.857 892.179, 1109.709 891.511, 1108.554 890.856 C 1107.399 890.201, 1106.237 889.559, 1105.076 888.913 C 1103.916 888.267, 1102.755 887.623, 1101.591 886.982 C 1100.427 886.341, 1099.262 885.700, 1098.092 885.069 C 1096.923 884.439, 1095.749 883.818, 1094.574 883.198 C 1093.399 882.578, 1092.221 881.963, 1091.041 881.349 C 1089.861 880.735, 1088.680 880.121, 1087.496 879.515 C 1086.312 878.909, 1085.126 878.308, 1083.936 877.714 C 1082.745 877.121, 1081.550 876.539, 1080.355 875.956 C 1079.160 875.374, 1077.963 874.794, 1076.766 874.217 C 1075.568 873.640, 1074.369 873.065, 1073.168 872.493 C 1071.967 871.922, 1070.766 871.351, 1069.560 870.788 C 1068.355 870.225, 1067.149 869.666, 1065.938 869.115 C 1064.726 868.564, 1063.510 868.022, 1062.294 867.483 C 1061.077 866.944, 1059.857 866.413, 1058.638 865.881 C 1057.418 865.348, 1056.200 864.812, 1054.977 864.288 C 1053.754 863.764, 1052.528 863.251, 1051.301 862.736 C 1050.075 862.221, 1048.848 861.704, 1047.618 861.198 C 1046.388 860.694, 1045.155 860.198, 1043.920 859.706 C 1042.685 859.213, 1041.446 858.727, 1040.207 858.243 C 1038.968 857.759, 1037.731 857.272, 1036.487 856.803 C 1035.244 856.334, 1033.995 855.883, 1032.747 855.428 C 1031.499 854.972, 1030.251 854.519, 1029.000 854.070 C 1027.748 853.620, 1026.492 853.171, 1025.235 852.731 C 1023.979 852.291, 1022.722 851.859, 1021.462 851.429 C 1020.201 851.000, 1018.938 850.569, 1017.672 850.155 C 1016.407 849.741, 1015.139 849.340, 1013.869 848.943 C 1012.599 848.546, 1011.325 848.158, 1010.050 847.775 C 1008.777 847.393, 1007.503 847.015, 1006.225 846.648 C 1004.948 846.280, 1003.669 845.924, 1002.387 845.571 C 1001.104 845.218, 999.818 844.869, 998.530 844.530 C 997.242 844.190, 995.952 843.857, 994.657 843.536 C 993.361 843.214, 992.060 842.906, 990.759 842.599 C 989.458 842.293, 988.156 841.987, 986.849 841.696 C 985.540 841.405, 984.228 841.124, 982.914 840.853 C 981.599 840.582, 980.284 840.324, 978.963 840.071 C 977.639 839.817, 976.310 839.567, 974.979 839.334 C 973.647 839.102, 972.312 838.884, 970.973 838.676 C 969.631 838.468, 968.286 838.267, 966.938 838.085 C 965.589 837.903, 964.235 837.737, 962.882 837.586 C 961.530 837.436, 960.176 837.298, 958.823 837.182 C 957.471 837.066, 956.119 836.965, 954.765 836.891 C 953.411 836.816, 952.053 836.765, 950.699 836.735 C 949.347 836.705, 947.995 836.694, 946.647 836.710 C 945.305 836.726, 943.967 836.762, 942.629 836.828 C 941.293 836.893, 939.955 836.984, 938.624 837.100 C 937.298 837.217, 935.973 837.354, 934.656 837.526 C 933.344 837.697, 932.036 837.896, 930.739 838.128 C 929.447 838.360, 928.164 838.625, 926.890 838.917 C 925.620 839.207, 924.355 839.522, 923.108 839.874 C 921.869 840.224, 920.643 840.604, 919.432 841.022 C 918.223 841.439, 917.024 841.895, 915.849 842.380 C 914.682 842.861, 913.533 843.376, 912.405 843.921 C 911.282 844.464, 910.174 845.036, 909.094 845.643 C 908.021 846.247, 906.970 846.883, 905.944 847.553 C 904.920 848.220, 903.919 848.922, 902.944 849.655 C 901.971 850.389, 901.019 851.158, 900.099 851.955 C 899.182 852.749, 898.289 853.574, 897.432 854.429 C 896.577 855.282, 895.754 856.167, 894.962 857.077 C 894.170 857.987, 893.408 858.924, 892.678 859.889 C 891.945 860.858, 891.243 861.859, 890.576 862.878 C 889.909 863.899, 889.276 864.942, 888.678 866.008 C 888.078 867.079, 887.514 868.179, 886.983 869.292 C 886.450 870.408, 885.948 871.543, 885.485 872.695 C 885.020 873.854, 884.590 875.033, 884.198 876.225 C 883.804 877.422, 883.451 878.638, 883.127 879.861 C 882.802 881.088, 882.506 882.326, 882.251 883.574 C 881.994 884.828, 881.780 886.091, 881.592 887.366 C 881.401 888.653, 881.241 889.956, 881.115 891.259 C 880.989 892.569, 880.898 893.884, 880.836 895.205 C 880.773 896.535, 880.745 897.876, 880.742 899.214 C 880.739 900.555, 880.767 901.897, 880.819 903.241 C 880.871 904.589, 880.953 905.941, 881.056 907.291 C 881.159 908.644, 881.286 909.999, 881.438 911.349 C 881.589 912.698, 881.768 914.044, 881.966 915.389 C 882.164 916.735, 882.385 918.081, 882.625 919.422 C 882.865 920.762, 883.128 922.097, 883.404 923.430 C 883.680 924.762, 883.973 926.092, 884.281 927.417 C 884.590 928.741, 884.913 930.061, 885.254 931.376 C 885.594 932.688, 885.957 933.993, 886.324 935.296 C 886.691 936.595, 887.063 937.890, 887.456 939.180 C 887.849 940.469, 888.266 941.752, 888.684 943.033 C 889.101 944.312, 889.522 945.589, 889.962 946.859 C 890.402 948.129, 890.860 949.393, 891.323 950.654 C 891.786 951.915, 892.260 953.173, 892.741 954.426 C 893.222 955.678, 893.710 956.926, 894.208 958.168 C 894.706 959.408, 895.214 960.641, 895.730 961.872 C 896.245 963.103, 896.770 964.330, 897.301 965.553 C 897.832 966.775, 898.373 967.992, 898.913 969.207 C 899.454 970.421, 899.991 971.633, 900.544 972.839 C 901.097 974.046, 901.660 975.248, 902.231 976.446 C 902.801 977.644, 903.383 978.836, 903.969 980.027 C 904.555 981.218, 905.148 982.405, 905.745 983.589 C 906.343 984.774, 906.939 985.958, 907.554 987.134 C 908.169 988.310, 908.804 989.477, 909.436 990.644 C 910.068 991.811, 910.701 992.977, 911.346 994.137 C 911.992 995.298, 912.650 996.453, 913.308 997.607 C 913.966 998.760, 914.626 999.912, 915.296 1001.058 C 915.967 1002.204, 916.647 1003.345, 917.330 1004.484 C 918.011 1005.622, 918.695 1006.758, 919.387 1007.889 C 920.079 1009.020, 920.776 1010.149, 921.482 1011.272 C 922.189 1012.396, 922.907 1013.514, 923.628 1014.630 C 924.348 1015.746, 925.076 1016.859, 925.807 1017.969 C 926.537 1019.077, 927.270 1020.182, 928.011 1021.282 C 928.753 1022.382, 929.501 1023.476, 930.256 1024.568 C 931.011 1025.660, 931.774 1026.748, 932.541 1027.832 C 933.308 1028.916, 934.080 1029.998, 934.860 1031.073 C 935.639 1032.149, 936.423 1033.220, 937.217 1034.286 C 938.011 1035.352, 938.814 1036.412, 939.621 1037.468 C 940.428 1038.525, 941.245 1039.574, 942.060 1040.624 C 942.876 1041.674, 943.688 1042.727, 944.514 1043.770 C 945.340 1044.812, 946.180 1045.845, 947.017 1046.879 C 947.853 1047.912, 948.685 1048.947, 949.532 1049.971 C 950.379 1050.996, 951.240 1052.009, 952.099 1053.024 C 952.958 1054.039, 953.818 1055.053, 954.686 1056.060 C 955.554 1057.067, 956.431 1058.064, 957.307 1059.065 C 958.185 1060.067, 959.063 1061.072, 959.950 1062.067 C 960.837 1063.063, 961.729 1064.053, 962.630 1065.036 C 963.531 1066.018, 964.442 1066.991, 965.354 1067.963 C 966.266 1068.937, 967.180 1069.911, 968.103 1070.875 C 969.025 1071.838, 969.956 1072.792, 970.891 1073.744 C 971.826 1074.695, 972.763 1075.644, 973.712 1076.582 C 974.660 1077.521, 975.617 1078.453, 976.582 1079.374 C 977.547 1080.296, 978.521 1081.207, 979.501 1082.111 C 980.479 1083.013, 981.463 1083.907, 982.455 1084.794 C 983.449 1085.683, 984.452 1086.564, 985.459 1087.439 C 986.466 1088.314, 987.473 1089.186, 988.494 1090.043 C 989.516 1090.899, 990.551 1091.738, 991.587 1092.578 C 992.625 1093.420, 993.666 1094.263, 994.718 1095.091 C 995.770 1095.919, 996.830 1096.740, 997.899 1097.546 C 998.966 1098.351, 1000.045 1099.140, 1001.127 1099.925 C 1002.210 1100.711, 1003.297 1101.493, 1004.393 1102.260 C 1005.491 1103.029, 1006.596 1103.788, 1007.708 1104.533 C 1008.820 1105.277, 1009.938 1106.012, 1011.068 1106.727 C 1012.195 1107.440, 1013.334 1108.131, 1014.479 1108.816 C 1015.625 1109.501, 1016.780 1110.176, 1017.942 1110.835 C 1019.103 1111.495, 1020.272 1112.143, 1021.450 1112.772 C 1022.629 1113.401, 1023.816 1114.015, 1025.012 1114.611 C 1026.209 1115.206, 1027.418 1115.782, 1028.631 1116.343 C 1029.844 1116.904, 1031.062 1117.452, 1032.289 1117.976 C 1033.517 1118.500, 1034.753 1119.007, 1035.997 1119.489 C 1037.238 1119.970, 1038.487 1120.429, 1039.744 1120.864 C 1040.999 1121.299, 1042.262 1121.713, 1043.531 1122.100 C 1044.797 1122.486, 1046.070 1122.847, 1047.347 1123.182 C 1048.621 1123.516, 1049.901 1123.825, 1051.185 1124.106 C 1052.467 1124.386, 1053.757 1124.643, 1055.047 1124.865 C 1056.330 1125.086, 1057.615 1125.276, 1058.902 1125.435 C 1060.186 1125.593, 1061.474 1125.721, 1062.760 1125.818 C 1064.042 1125.916, 1065.326 1125.983, 1066.608 1126.020 C 1067.887 1126.057, 1069.166 1126.068, 1070.442 1126.041 C 1071.716 1126.015, 1072.989 1125.954, 1074.258 1125.862 C 1075.524 1125.769, 1076.789 1125.644, 1078.048 1125.489 C 1079.304 1125.334, 1080.556 1125.148, 1081.801 1124.931 C 1083.046 1124.714, 1084.286 1124.466, 1085.517 1124.188 C 1086.748 1123.910, 1087.972 1123.604, 1089.188 1123.266 C 1090.406 1122.926, 1091.618 1122.552, 1092.820 1122.153 C 1094.022 1121.754, 1095.216 1121.327, 1096.400 1120.871 C 1097.586 1120.415, 1098.763 1119.929, 1099.929 1119.420 C 1101.096 1118.910, 1102.253 1118.375, 1103.399 1117.814 C 1104.549 1117.252, 1105.688 1116.661, 1106.816 1116.052 C 1107.946 1115.441, 1109.065 1114.811, 1110.172 1114.153 C 1111.286 1113.492, 1112.388 1112.800, 1113.480 1112.093 C 1114.575 1111.384, 1115.659 1110.653, 1116.732 1109.906 C 1117.808 1109.157, 1118.872 1108.389, 1119.927 1107.603 C 1120.986 1106.813, 1122.035 1106.000, 1123.074 1105.176 C 1124.114 1104.349, 1125.144 1103.507, 1126.165 1102.650 C 1127.189 1101.791, 1128.201 1100.913, 1129.207 1100.027 C 1130.216 1099.138, 1131.215 1098.233, 1132.208 1097.324 C 1133.203 1096.415, 1134.190 1095.497, 1135.170 1094.573 C 1136.150 1093.650, 1137.124 1092.724, 1138.089 1091.785 C 1139.055 1090.845, 1140.010 1089.888, 1140.964 1088.933 C 1141.919 1087.978, 1142.869 1087.017, 1143.817 1086.056 C 1144.763 1085.097, 1145.710 1084.143, 1146.647 1083.174 C 1147.586 1082.204, 1148.513 1081.219, 1149.443 1080.240 C 1150.372 1079.260, 1151.296 1078.274, 1152.225 1077.296 C 1153.153 1076.320, 1154.087 1075.353, 1155.014 1074.378 C 1155.942 1073.404, 1156.867 1072.426, 1157.791 1071.448 C 1158.715 1070.471, 1159.634 1069.488, 1160.558 1068.512 C 1161.482 1067.537, 1162.407 1066.563, 1163.336 1065.596 C 1164.262 1064.631, 1165.193 1063.675, 1166.122 1062.715 C 1167.051 1061.756, 1167.977 1060.794, 1168.908 1059.837 C 1169.837 1058.882, 1170.769 1057.928, 1171.703 1056.978 C 1172.637 1056.027, 1173.572 1055.080, 1174.510 1054.135 C 1175.449 1053.191, 1176.391 1052.252, 1177.334 1051.312 C 1178.276 1050.372, 1179.223 1049.437, 1180.165 1048.498 C 1181.108 1047.559, 1182.045 1046.614, 1182.989 1045.676 C 1183.933 1044.739, 1184.885 1043.809, 1185.830 1042.873 C 1186.776 1041.938, 1187.718 1040.999, 1188.664 1040.064 C 1189.609 1039.129, 1190.556 1038.196, 1191.502 1037.263 C 1192.449 1036.329, 1193.399 1035.400, 1194.342 1034.464 C 1195.285 1033.528, 1196.219 1032.583, 1197.160 1031.645 C 1198.100 1030.708, 1199.044 1029.775, 1199.986 1028.841 C 1200.928 1027.906, 1201.870 1026.973, 1202.812 1026.039 C 1203.754 1025.106, 1204.697 1024.174, 1205.638 1023.240 C 1206.579 1022.307, 1207.518 1021.372, 1208.459 1020.439 C 1209.399 1019.506, 1210.340 1018.574, 1211.282 1017.643 C 1212.222 1016.711, 1213.164 1015.780, 1214.105 1014.849 C 1215.045 1013.918, 1215.986 1012.987, 1216.927 1012.056 C 1217.868 1011.126, 1218.809 1010.195, 1219.750 1009.264 C 1220.690 1008.334, 1221.631 1007.403, 1222.572 1006.473 C 1223.512 1005.543, 1224.453 1004.612, 1225.393 1003.682 C 1226.334 1002.751, 1227.274 1001.821, 1228.215 1000.890 C 1229.155 999.959, 1230.096 999.029, 1231.036 998.098 C 1231.977 997.167, 1232.917 996.236, 1233.857 995.305 C 1234.798 994.373, 1235.738 993.442, 1236.678 992.510 C 1237.619 991.578, 1238.559 990.646, 1239.499 989.714 C 1240.440 988.781, 1241.380 987.849, 1242.320 986.915 C 1243.260 985.982, 1244.203 985.051, 1245.141 984.114 C 1246.079 983.178, 1247.012 982.235, 1247.950 981.297 C 1248.889 980.359, 1249.831 979.424, 1250.773 978.488 C 1251.715 977.553, 1252.659 976.619, 1253.603 975.684 C 1254.546 974.750, 1255.492 973.818, 1256.435 972.883 C 1257.378 971.948, 1258.322 971.014, 1259.263 970.077 C 1260.205 969.140, 1261.145 968.201, 1262.085 967.261 C 1263.025 966.322, 1263.961 965.377, 1264.903 964.438 C 1265.845 963.500, 1266.794 962.568, 1267.738 961.631 C 1268.683 960.694, 1269.626 959.755, 1270.570 958.817 C 1271.513 957.878, 1272.456 956.939, 1273.400 956.001 C 1274.344 955.063, 1275.287 954.124, 1276.234 953.188 C 1277.181 952.252, 1278.135 951.323, 1279.081 950.386 C 1280.027 949.449, 1280.968 948.508, 1281.910 947.567 C 1282.852 946.626, 1283.792 945.683, 1284.733 944.742 C 1285.675 943.801, 1286.618 942.861, 1287.560 941.921 C 1288.502 940.982, 1289.446 940.043, 1290.388 939.104 C 1291.330 938.164, 1292.269 937.222, 1293.214 936.285 C 1294.159 935.349, 1295.111 934.419, 1296.057 933.484 C 1297.004 932.549, 1297.946 931.609, 1298.892 930.673 C 1299.838 929.737, 1300.785 928.803, 1301.733 927.869 C 1302.681 926.935, 1303.632 926.004, 1304.579 925.069 C 1305.525 924.134, 1306.467 923.195, 1307.411 922.258 C 1308.355 921.321, 1309.302 920.387, 1310.244 919.450 C 1311.187 918.512, 1312.124 917.571, 1313.066 916.633 C 1314.007 915.696, 1314.951 914.762, 1315.892 913.826 C 1316.833 912.890, 1317.774 911.953, 1318.713 911.016 C 1319.652 910.079, 1320.587 909.139, 1321.527 908.204 C 1322.467 907.269, 1323.408 906.337, 1324.352 905.407 C 1325.296 904.477, 1326.248 903.554, 1327.192 902.624 C 1328.135 901.694, 1329.074 900.758, 1330.015 899.825 C 1330.956 898.893, 1331.897 897.960, 1332.838 897.028 C 1333.779 896.096, 1334.721 895.165, 1335.661 894.232 C 1336.601 893.300, 1337.537 892.363, 1338.477 891.431 C 1339.417 890.499, 1340.361 889.570, 1341.302 888.639 C 1342.243 887.707, 1343.180 886.772, 1344.122 885.842 C 1345.064 884.912, 1346.012 883.987, 1346.955 883.058 C 1347.898 882.128, 1348.838 881.196, 1349.780 880.266 C 1350.721 879.335, 1351.663 878.404, 1352.604 877.473 C 1353.546 876.543, 1354.487 875.612, 1355.428 874.681 C 1356.369 873.750, 1357.311 872.819, 1358.252 871.888 C 1359.193 870.956, 1360.134 870.025, 1361.075 869.093 C 1362.016 868.161, 1362.957 867.230, 1363.898 866.297 C 1364.839 865.365, 1365.780 864.433, 1366.720 863.500 C 1367.661 862.566, 1368.600 861.631, 1369.539 860.696 C 1370.479 859.760, 1371.417 858.822, 1372.359 857.887 C 1373.300 856.953, 1374.245 856.021, 1375.189 855.088 C 1376.132 854.156, 1377.078 853.225, 1378.022 852.292 C 1378.965 851.358, 1379.908 850.424, 1380.850 849.490 C 1381.793 848.555, 1382.735 847.620, 1383.678 846.685 C 1384.621 845.750, 1385.564 844.815, 1386.507 843.880 C 1387.450 842.945, 1388.393 842.009, 1389.337 841.075 C 1390.281 840.140, 1391.227 839.208, 1392.171 838.274 C 1393.115 837.339, 1394.058 836.403, 1395.000 835.467 C 1395.942 834.530, 1396.883 833.592, 1397.823 832.654 C 1398.764 831.716, 1399.704 830.777, 1400.644 829.837 C 1401.585 828.898, 1402.526 827.959, 1403.465 827.017 C 1404.403 826.076, 1405.337 825.130, 1406.274 824.188 C 1407.211 823.245, 1408.147 822.301, 1409.087 821.361 C 1410.026 820.420, 1410.966 819.482, 1411.908 818.544 C 1412.850 817.606, 1413.796 816.672, 1414.738 815.735 C 1415.681 814.798, 1416.622 813.859, 1417.563 812.920 C 1418.505 811.981, 1419.448 811.043, 1420.388 810.102 C 1421.328 809.161, 1422.262 808.214, 1423.203 807.275 C 1424.145 806.336, 1425.093 805.404, 1426.037 804.467 C 1426.981 803.530, 1427.927 802.607, 1428.866 801.653 C 1429.819 800.685, 1430.751 799.692, 1431.714 798.697 C 1432.701 797.676, 1433.703 796.638, 1434.719 795.603 C 1435.753 794.550, 1436.808 793.493, 1437.864 792.432 C 1438.933 791.359, 1440.011 790.278, 1441.094 789.201 C 1442.182 788.118, 1443.280 787.032, 1444.376 785.950 C 1445.474 784.868, 1446.576 783.783, 1447.677 782.708 C 1448.773 781.637, 1449.873 780.568, 1450.968 779.509 C 1452.053 778.460, 1453.141 777.417, 1454.216 776.382 C 1455.277 775.361, 1456.329 774.339, 1457.378 773.340 C 1458.408 772.358, 1459.438 771.391, 1460.453 770.436 C 1461.445 769.503, 1462.429 768.580, 1463.400 767.676 C 1464.344 766.798, 1465.281 765.932, 1466.202 765.087 C 1467.091 764.271, 1467.972 763.469, 1468.834 762.688 C 1469.662 761.938, 1470.476 761.201, 1471.275 760.492 C 1472.036 759.816, 1472.789 759.160, 1473.519 758.527 C 1474.208 757.930, 1474.880 757.345, 1475.535 756.795 C 1476.147 756.281, 1476.751 755.790, 1477.327 755.324 C 1477.856 754.896, 1478.369 754.480, 1478.860 754.102 C 1479.302 753.761, 1479.734 753.438, 1480.138 753.151 C 1480.491 752.901, 1480.833 752.661, 1481.147 752.470 C 1481.408 752.311, 1481.663 752.156, 1481.885 752.067 C 1482.052 752.001, 1482.232 751.919, 1482.345 751.945 C 1482.426 751.965, 1482.501 752.029, 1482.526 752.105 C 1482.560 752.210, 1482.487 752.388, 1482.429 752.550 C 1482.351 752.767, 1482.204 753.019, 1482.054 753.277 C 1481.872 753.589, 1481.646 753.933, 1481.401 754.281 C 1481.120 754.681, 1480.791 755.100, 1480.452 755.534 C 1480.075 756.017, 1479.665 756.527, 1479.236 757.047 C 1478.770 757.613, 1478.268 758.198, 1477.754 758.802 C 1477.203 759.449, 1476.631 760.125, 1476.035 760.807 C 1475.404 761.530, 1474.741 762.269, 1474.066 763.023 C 1473.357 763.814, 1472.626 764.626, 1471.876 765.446 C 1471.095 766.301, 1470.286 767.167, 1469.468 768.049 C 1468.621 768.961, 1467.758 769.892, 1466.880 770.829 C 1465.977 771.794, 1465.051 772.769, 1464.122 773.757 C 1463.170 774.770, 1462.211 775.803, 1461.237 776.835 C 1460.244 777.886, 1459.234 778.944, 1458.221 780.008 C 1457.194 781.087, 1456.156 782.174, 1455.113 783.262 C 1454.062 784.360, 1453.002 785.465, 1451.939 786.565 C 1450.871 787.671, 1449.790 788.775, 1448.718 789.881 C 1447.646 790.987, 1446.576 792.100, 1445.507 793.203 C 1444.444 794.300, 1443.376 795.392, 1442.320 796.479 C 1441.276 797.554, 1440.239 798.631, 1439.207 799.689 C 1438.194 800.728, 1437.181 801.758, 1436.184 802.771 C 1435.211 803.760, 1434.245 804.721, 1433.298 805.696 C 1432.365 806.657, 1431.459 807.616, 1430.543 808.579 C 1429.628 809.542, 1428.717 810.510, 1427.804 811.475 C 1426.892 812.440, 1425.980 813.405, 1425.069 814.371 C 1424.158 815.336, 1423.247 816.302, 1422.337 817.268 C 1421.428 818.234, 1420.517 819.198, 1419.610 820.166 C 1418.704 821.134, 1417.802 822.106, 1416.897 823.076 C 1415.993 824.045, 1415.086 825.013, 1414.183 825.984 C 1413.279 826.954, 1412.377 827.926, 1411.475 828.898 C 1410.573 829.869, 1409.670 830.840, 1408.769 831.813 C 1407.869 832.786, 1406.968 833.759, 1406.070 834.734 C 1405.173 835.710, 1404.280 836.689, 1403.382 837.665 C 1402.485 838.641, 1401.581 839.611, 1400.686 840.588 C 1399.790 841.565, 1398.900 842.547, 1398.009 843.528 C 1397.118 844.510, 1396.231 845.494, 1395.340 846.476 C 1394.450 847.458, 1393.557 848.439, 1392.665 849.419 C 1391.773 850.400, 1390.881 851.380, 1389.988 852.360 C 1389.096 853.340, 1388.201 854.317, 1387.311 855.298 C 1386.421 856.280, 1385.538 857.268, 1384.649 858.250 C 1383.759 859.233, 1382.866 860.211, 1381.975 861.191 C 1381.084 862.172, 1380.196 863.155, 1379.304 864.135 C 1378.412 865.115, 1377.516 866.092, 1376.622 867.071 C 1375.729 868.050, 1374.838 869.032, 1373.943 870.010 C 1373.048 870.988, 1372.151 871.965, 1371.253 872.940 C 1370.354 873.916, 1369.452 874.889, 1368.552 875.864 C 1367.652 876.839, 1366.753 877.814, 1365.852 878.789 C 1364.952 879.764, 1364.050 880.737, 1363.150 881.714 C 1362.251 882.690, 1361.353 883.668, 1360.456 884.647 C 1359.559 885.625, 1358.662 886.605, 1357.766 887.586 C 1356.871 888.566, 1355.979 889.551, 1355.082 890.530 C 1354.185 891.510, 1353.281 892.483, 1352.383 893.461 C 1351.485 894.440, 1350.591 895.422, 1349.694 896.402 C 1348.796 897.382, 1347.894 898.358, 1346.998 899.340 C 1346.101 900.322, 1345.211 901.309, 1344.316 902.292 C 1343.421 903.277, 1342.524 904.260, 1341.629 905.244 C 1340.732 906.229, 1339.837 907.215, 1338.941 908.200 C 1338.044 909.185, 1337.145 910.168, 1336.250 911.155 C 1335.355 912.143, 1334.460 913.133, 1333.569 914.125 C 1332.677 915.117, 1331.789 916.111, 1330.900 917.106 C 1330.011 918.102, 1329.123 919.099, 1328.235 920.098 C 1327.344 921.099, 1326.455 922.103, 1325.564 923.106 C 1324.674 924.108, 1323.778 925.105, 1322.893 926.111 C 1322.007 927.117, 1321.128 928.130, 1320.250 929.142 C 1319.373 930.153, 1318.498 931.165, 1317.625 932.181 C 1316.752 933.198, 1315.882 934.217, 1315.012 935.240 C 1314.141 936.266, 1313.266 937.293, 1312.403 938.328 C 1311.539 939.363, 1310.682 940.404, 1309.830 941.449 C 1308.977 942.496, 1308.126 943.549, 1307.286 944.607 C 1306.448 945.663, 1305.615 946.723, 1304.795 947.793 C 1303.977 948.862, 1303.167 949.938, 1302.372 951.022 C 1301.578 952.105, 1300.800 953.196, 1300.027 954.293 C 1299.253 955.392, 1298.482 956.495, 1297.732 957.610 C 1296.983 958.722, 1296.246 959.845, 1295.528 960.974 C 1294.812 962.100, 1294.112 963.234, 1293.429 964.377 C 1292.746 965.518, 1292.076 966.670, 1291.428 967.828 C 1290.782 968.983, 1290.152 970.145, 1289.545 971.316 C 1288.941 972.482, 1288.356 973.655, 1287.794 974.839 C 1287.232 976.022, 1286.693 977.218, 1286.175 978.419 C 1285.658 979.616, 1285.163 980.822, 1284.689 982.035 C 1284.216 983.246, 1283.760 984.464, 1283.335 985.690 C 1282.911 986.915, 1282.514 988.150, 1282.141 989.390 C 1281.768 990.628, 1281.416 991.876, 1281.095 993.126 C 1280.775 994.373, 1280.484 995.624, 1280.216 996.881 C 1279.948 998.136, 1279.699 999.396, 1279.487 1000.660 C 1279.275 1001.922, 1279.097 1003.189, 1278.943 1004.459 C 1278.789 1005.729, 1278.658 1007.002, 1278.563 1008.277 C 1278.468 1009.552, 1278.409 1010.831, 1278.374 1012.109 C 1278.338 1013.388, 1278.329 1014.666, 1278.349 1015.946 C 1278.369 1017.230, 1278.415 1018.516, 1278.495 1019.799 C 1278.576 1021.084, 1278.693 1022.368, 1278.833 1023.649 C 1278.973 1024.931, 1279.137 1026.213, 1279.333 1027.490 C 1279.531 1028.768, 1279.763 1030.043, 1280.016 1031.314 C 1280.270 1032.588, 1280.552 1033.860, 1280.855 1035.126 C 1281.159 1036.394, 1281.485 1037.658, 1281.837 1038.915 C 1282.190 1040.174, 1282.571 1041.428, 1282.970 1042.676 C 1283.371 1043.927, 1283.795 1045.172, 1284.239 1046.410 C 1284.684 1047.650, 1285.151 1048.885, 1285.638 1050.112 C 1286.127 1051.342, 1286.637 1052.567, 1287.166 1053.782 C 1287.696 1054.998, 1288.251 1056.204, 1288.817 1057.406 C 1289.384 1058.611, 1289.967 1059.811, 1290.567 1061.002 C 1291.168 1062.195, 1291.788 1063.380, 1292.418 1064.559 C 1293.049 1065.739, 1293.692 1066.914, 1294.351 1068.080 C 1295.010 1069.248, 1295.691 1070.406, 1296.372 1071.562 C 1297.053 1072.717, 1297.739 1073.868, 1298.434 1075.013 C 1299.130 1076.158, 1299.832 1077.298, 1300.546 1078.432 C 1301.263 1079.569, 1301.996 1080.698, 1302.727 1081.826 C 1303.457 1082.954, 1304.190 1084.081, 1304.931 1085.200 C 1305.672 1086.319, 1306.424 1087.431, 1307.172 1088.542 C 1307.919 1089.651, 1308.667 1090.756, 1309.418 1091.861 C 1310.168 1092.965, 1310.917 1094.068, 1311.675 1095.167 C 1312.434 1096.266, 1313.202 1097.360, 1313.967 1098.455 C 1314.731 1099.550, 1315.496 1100.644, 1316.264 1101.735 C 1317.033 1102.827, 1317.808 1103.916, 1318.579 1105.006 C 1319.348 1106.096, 1320.115 1107.186, 1320.883 1108.276 C 1321.650 1109.365, 1322.419 1110.453, 1323.183 1111.543 C 1323.947 1112.631, 1324.704 1113.722, 1325.467 1114.810 C 1326.230 1115.899, 1326.999 1116.984, 1327.761 1118.074 C 1328.523 1119.163, 1329.280 1120.255, 1330.039 1121.346 C 1330.799 1122.437, 1331.560 1123.528, 1332.317 1124.620 C 1333.075 1125.712, 1333.834 1126.803, 1334.585 1127.899 C 1335.336 1128.995, 1336.083 1130.092, 1336.822 1131.195 C 1337.560 1132.296, 1338.288 1133.403, 1339.017 1134.511 C 1339.745 1135.618, 1340.467 1136.728, 1341.190 1137.839 C 1341.913 1138.950, 1342.639 1140.061, 1343.355 1141.177 C 1344.071 1142.293, 1344.778 1143.414, 1345.485 1144.535 C 1346.192 1145.656, 1346.894 1146.781, 1347.596 1147.905 C 1348.299 1149.030, 1349.005 1150.152, 1349.698 1151.282 C 1350.392 1152.411, 1351.072 1153.548, 1351.757 1154.683 C 1352.441 1155.818, 1353.127 1156.953, 1353.804 1158.093 C 1354.482 1159.232, 1355.154 1160.376, 1355.821 1161.521 C 1356.489 1162.666, 1357.151 1163.814, 1357.809 1164.965 C 1358.466 1166.116, 1359.116 1167.272, 1359.765 1168.428 C 1360.415 1169.584, 1361.061 1170.743, 1361.705 1171.903 C 1362.348 1173.062, 1362.993 1174.220, 1363.627 1175.385 C 1364.260 1176.550, 1364.879 1177.721, 1365.504 1178.891 C 1366.130 1180.061, 1366.760 1181.230, 1367.377 1182.405 C 1367.995 1183.580, 1368.605 1184.760, 1369.210 1185.941 C 1369.815 1187.123, 1370.410 1188.308, 1371.005 1189.494 C 1371.600 1190.681, 1372.193 1191.868, 1372.779 1193.058 C 1373.366 1194.249, 1373.942 1195.444, 1374.522 1196.638 C 1375.103 1197.834, 1375.688 1199.028, 1376.263 1200.227 C 1376.837 1201.425, 1377.402 1202.627, 1377.967 1203.830 C 1378.532 1205.033, 1379.099 1206.235, 1379.651 1207.444 C 1380.203 1208.653, 1380.737 1209.869, 1381.277 1211.083 C 1381.816 1212.298, 1382.357 1213.512, 1382.888 1214.731 C 1383.420 1215.949, 1383.949 1217.170, 1384.465 1218.395 C 1384.981 1219.619, 1385.485 1220.847, 1385.983 1222.077 C 1386.481 1223.309, 1386.968 1224.545, 1387.453 1225.781 C 1387.938 1227.017, 1388.419 1228.255, 1388.894 1229.495 C 1389.368 1230.735, 1389.836 1231.978, 1390.300 1233.224 C 1390.765 1234.470, 1391.224 1235.720, 1391.678 1236.971 C 1392.133 1238.222, 1392.587 1239.471, 1393.026 1240.727 C 1393.465 1241.983, 1393.892 1243.244, 1394.310 1244.507 C 1394.729 1245.769, 1395.135 1247.035, 1395.535 1248.303 C 1395.934 1249.570, 1396.326 1250.839, 1396.707 1252.112 C 1397.089 1253.385, 1397.458 1254.661, 1397.823 1255.939 C 1398.188 1257.219, 1398.549 1258.502, 1398.898 1259.786 C 1399.246 1261.071, 1399.585 1262.358, 1399.912 1263.648 C 1400.240 1264.936, 1400.554 1266.226, 1400.862 1267.520 C 1401.170 1268.816, 1401.475 1270.116, 1401.762 1271.418 C 1402.049 1272.719, 1402.320 1274.022, 1402.585 1275.328 C 1402.850 1276.636, 1403.106 1277.949, 1403.350 1279.261 C 1403.593 1280.572, 1403.830 1281.882, 1404.047 1283.198 C 1404.265 1284.517, 1404.466 1285.842, 1404.655 1287.168 C 1404.844 1288.494, 1405.021 1289.824, 1405.182 1291.154 C 1405.343 1292.485, 1405.489 1293.817, 1405.622 1295.151 C 1405.754 1296.486, 1405.875 1297.824, 1405.977 1299.162 C 1406.079 1300.500, 1406.171 1301.839, 1406.234 1303.178 C 1406.298 1304.516, 1406.333 1305.856, 1406.359 1307.196 C 1406.385 1308.537, 1406.402 1309.880, 1406.391 1311.221 C 1406.380 1312.560, 1406.350 1313.900, 1406.294 1315.237 C 1406.237 1316.572, 1406.155 1317.906, 1406.054 1319.238 C 1405.953 1320.569, 1405.835 1321.901, 1405.689 1323.226 C 1405.542 1324.550, 1405.373 1325.871, 1405.175 1327.187 C 1404.978 1328.500, 1404.753 1329.811, 1404.505 1331.113 C 1404.257 1332.410, 1403.987 1333.700, 1403.688 1334.984 C 1403.389 1336.269, 1403.065 1337.548, 1402.711 1338.818 C 1402.357 1340.086, 1401.975 1341.351, 1401.563 1342.597 C 1401.154 1343.837, 1400.714 1345.063, 1400.248 1346.277 C 1399.784 1347.487, 1399.298 1348.687, 1398.776 1349.869 C 1398.255 1351.051, 1397.700 1352.219, 1397.118 1353.369 C 1396.537 1354.516, 1395.925 1355.648, 1395.288 1356.760 C 1394.653 1357.867, 1393.993 1358.955, 1393.304 1360.026 C 1392.614 1361.097, 1391.895 1362.154, 1391.150 1363.185 C 1390.407 1364.211, 1389.639 1365.218, 1388.838 1366.197 C 1388.038 1367.175, 1387.203 1368.128, 1386.346 1369.056 C 1385.492 1369.982, 1384.613 1370.883, 1383.707 1371.759 C 1382.799 1372.637, 1381.860 1373.489, 1380.904 1374.315 C 1379.947 1375.142, 1378.970 1375.943, 1377.969 1376.716 C 1376.964 1377.492, 1375.934 1378.242, 1374.885 1378.961 C 1373.833 1379.681, 1372.754 1380.373, 1371.664 1381.034 C 1370.576 1381.693, 1369.471 1382.322, 1368.348 1382.922 C 1367.223 1383.524, 1366.079 1384.096, 1364.922 1384.641 C 1363.761 1385.188, 1362.584 1385.707, 1361.394 1386.199 C 1360.201 1386.692, 1358.993 1387.161, 1357.772 1387.593 C 1356.547 1388.026, 1355.305 1388.419, 1354.055 1388.792 C 1352.801 1389.166, 1351.533 1389.512, 1350.259 1389.832 C 1348.980 1390.153, 1347.689 1390.450, 1346.395 1390.717 C 1345.100 1390.983, 1343.797 1391.220, 1342.489 1391.432 C 1341.181 1391.644, 1339.866 1391.826, 1338.548 1391.989 C 1337.226 1392.152, 1335.900 1392.294, 1334.571 1392.408 C 1333.238 1392.522, 1331.898 1392.606, 1330.560 1392.670 C 1329.221 1392.735, 1327.879 1392.772, 1326.539 1392.794 C 1325.198 1392.816, 1323.858 1392.822, 1322.516 1392.803 C 1321.172 1392.783, 1319.825 1392.736, 1318.482 1392.677 C 1317.141 1392.618, 1315.801 1392.544, 1314.462 1392.450 C 1313.121 1392.357, 1311.779 1392.244, 1310.443 1392.114 C 1309.109 1391.984, 1307.780 1391.834, 1306.451 1391.671 C 1305.120 1391.508, 1303.790 1391.329, 1302.464 1391.136 C 1301.138 1390.942, 1299.815 1390.729, 1298.493 1390.510 C 1297.171 1390.291, 1295.850 1390.067, 1294.533 1389.824 C 1293.217 1389.581, 1291.903 1389.319, 1290.592 1389.051 C 1289.282 1388.782, 1287.974 1388.501, 1286.670 1388.213 C 1285.368 1387.926, 1284.069 1387.633, 1282.773 1387.325 C 1281.475 1387.017, 1280.180 1386.692, 1278.887 1386.365 C 1277.594 1386.038, 1276.302 1385.707, 1275.015 1385.363 C 1273.730 1385.019, 1272.451 1384.663, 1271.172 1384.301 C 1269.893 1383.938, 1268.614 1383.568, 1267.340 1383.188 C 1266.065 1382.809, 1264.795 1382.421, 1263.526 1382.027 C 1262.257 1381.632, 1260.989 1381.233, 1259.726 1380.823 C 1258.465 1380.414, 1257.208 1379.994, 1255.951 1379.569 C 1254.693 1379.143, 1253.434 1378.714, 1252.180 1378.271 C 1250.925 1377.828, 1249.675 1377.367, 1248.426 1376.910 C 1247.179 1376.453, 1245.932 1375.997, 1244.690 1375.529 C 1243.447 1375.061, 1242.208 1374.583, 1240.970 1374.101 C 1239.732 1373.620, 1238.496 1373.133, 1237.263 1372.639 C 1236.030 1372.145, 1234.799 1371.644, 1233.571 1371.139 C 1232.342 1370.634, 1231.115 1370.128, 1229.892 1369.608 C 1228.669 1369.088, 1227.451 1368.552, 1226.233 1368.018 C 1225.015 1367.484, 1223.797 1366.947, 1222.583 1366.404 C 1221.370 1365.861, 1220.162 1365.311, 1218.953 1364.761 C 1217.744 1364.211, 1216.534 1363.663, 1215.329 1363.105 C 1214.124 1362.546, 1212.923 1361.979, 1211.724 1361.408 C 1210.525 1360.837, 1209.329 1360.260, 1208.133 1359.680 C 1206.937 1359.100, 1205.739 1358.518, 1204.547 1357.928 C 1203.355 1357.339, 1202.169 1356.739, 1200.981 1356.141 C 1199.793 1355.544, 1198.607 1354.947, 1197.422 1354.346 C 1196.236 1353.744, 1195.051 1353.142, 1193.871 1352.531 C 1192.690 1351.921, 1191.511 1351.305, 1190.337 1350.681 C 1189.162 1350.058, 1187.993 1349.421, 1186.823 1348.789 C 1185.654 1348.158, 1184.486 1347.529, 1183.320 1346.892 C 1182.155 1346.255, 1180.990 1345.616, 1179.829 1344.969 C 1178.669 1344.321, 1177.512 1343.666, 1176.357 1343.009 C 1175.202 1342.351, 1174.050 1341.689, 1172.901 1341.024 C 1171.751 1340.360, 1170.602 1339.694, 1169.458 1339.019 C 1168.313 1338.344, 1167.175 1337.657, 1166.036 1336.974 C 1164.896 1336.290, 1163.758 1335.606, 1162.621 1334.917 C 1161.485 1334.229, 1160.348 1333.542, 1159.218 1332.844 C 1158.087 1332.146, 1156.963 1331.437, 1155.838 1330.730 C 1154.712 1330.023, 1153.586 1329.317, 1152.466 1328.602 C 1151.346 1327.886, 1150.231 1327.161, 1149.116 1326.436 C 1148.002 1325.710, 1146.892 1324.978, 1145.780 1324.248 C 1144.669 1323.519, 1143.557 1322.791, 1142.448 1322.059 C 1141.338 1321.327, 1140.231 1320.591, 1139.123 1319.855 C 1138.015 1319.120, 1136.905 1318.388, 1135.801 1317.648 C 1134.697 1316.907, 1133.597 1316.159, 1132.497 1315.411 C 1131.398 1314.663, 1130.303 1313.910, 1129.205 1313.158 C 1128.105 1312.404, 1127.018 1311.654, 1125.902 1310.893 C 1124.758 1310.114, 1123.590 1309.340, 1122.424 1308.538 C 1121.232 1307.720, 1120.028 1306.882, 1118.827 1306.031 C 1117.608 1305.168, 1116.387 1304.279, 1115.163 1303.393 C 1113.928 1302.499, 1112.685 1301.600, 1111.450 1300.691 C 1110.211 1299.778, 1108.973 1298.853, 1107.742 1297.928 C 1106.512 1297.005, 1105.283 1296.075, 1104.066 1295.146 C 1102.856 1294.222, 1101.653 1293.290, 1100.459 1292.368 C 1099.277 1291.456, 1098.098 1290.551, 1096.937 1289.645 C 1095.795 1288.753, 1094.662 1287.861, 1093.548 1286.975 C 1092.457 1286.107, 1091.381 1285.236, 1090.321 1284.380 C 1089.288 1283.545, 1088.265 1282.718, 1087.266 1281.900 C 1086.297 1281.107, 1085.343 1280.320, 1084.412 1279.546 C 1083.515 1278.800, 1082.633 1278.063, 1081.778 1277.339 C 1080.960 1276.646, 1080.158 1275.962, 1079.387 1275.291 C 1078.654 1274.654, 1077.942 1274.024, 1077.258 1273.413 C 1076.615 1272.839, 1075.988 1272.277, 1075.396 1271.731 C 1074.847 1271.224, 1074.318 1270.724, 1073.822 1270.248 C 1073.370 1269.814, 1072.931 1269.395, 1072.535 1268.991 C 1072.183 1268.631, 1071.850 1268.276, 1071.558 1267.947 C 1071.308 1267.666, 1071.065 1267.397, 1070.882 1267.147 C 1070.735 1266.946, 1070.583 1266.748, 1070.523 1266.576 C 1070.481 1266.456, 1070.441 1266.313, 1070.487 1266.242 C 1070.529 1266.176, 1070.655 1266.155, 1070.766 1266.151 C 1070.926 1266.146, 1071.143 1266.231, 1071.360 1266.303 C 1071.635 1266.394, 1071.950 1266.533, 1072.274 1266.682 C 1072.655 1266.857, 1073.067 1267.074, 1073.494 1267.300 C 1073.976 1267.554, 1074.492 1267.836, 1075.021 1268.136 C 1075.601 1268.466, 1076.208 1268.831, 1076.834 1269.203 C 1077.510 1269.605, 1078.218 1270.027, 1078.937 1270.469 C 1079.704 1270.941, 1080.493 1271.442, 1081.299 1271.953 C 1082.149 1272.492, 1083.025 1273.049, 1083.912 1273.624 C 1084.840 1274.226, 1085.787 1274.854, 1086.750 1275.488 C 1087.749 1276.148, 1088.769 1276.824, 1089.802 1277.509 C 1090.868 1278.217, 1091.953 1278.940, 1093.050 1279.669 C 1094.175 1280.418, 1095.321 1281.173, 1096.471 1281.944 C 1097.646 1282.732, 1098.831 1283.536, 1100.024 1284.345 C 1101.237 1285.168, 1102.460 1286.005, 1103.689 1286.840 C 1104.933 1287.685, 1106.189 1288.531, 1107.443 1289.387 C 1108.706 1290.248, 1109.971 1291.123, 1111.238 1291.991 C 1112.508 1292.861, 1113.783 1293.733, 1115.054 1294.600 C 1116.321 1295.464, 1117.590 1296.331, 1118.854 1297.186 C 1120.108 1298.035, 1121.362 1298.880, 1122.608 1299.712 C 1123.835 1300.532, 1125.063 1301.342, 1126.274 1302.142 C 1127.460 1302.926, 1128.635 1303.710, 1129.801 1304.465 C 1130.938 1305.202, 1132.050 1305.918, 1133.183 1306.622 C 1134.312 1307.324, 1135.449 1308.000, 1136.585 1308.685 C 1137.721 1309.369, 1138.859 1310.050, 1139.998 1310.729 C 1141.137 1311.408, 1142.276 1312.086, 1143.420 1312.756 C 1144.563 1313.426, 1145.711 1314.087, 1146.860 1314.747 C 1148.009 1315.408, 1149.158 1316.067, 1150.312 1316.719 C 1151.465 1317.370, 1152.621 1318.014, 1153.779 1318.658 C 1154.937 1319.301, 1156.095 1319.943, 1157.257 1320.578 C 1158.420 1321.213, 1159.586 1321.843, 1160.755 1322.466 C 1161.925 1323.089, 1163.101 1323.699, 1164.275 1324.314 C 1165.448 1324.929, 1166.618 1325.549, 1167.794 1326.158 C 1168.971 1326.767, 1170.152 1327.369, 1171.334 1327.969 C 1172.515 1328.569, 1173.697 1329.169, 1174.884 1329.758 C 1176.071 1330.347, 1177.264 1330.925, 1178.457 1331.502 C 1179.650 1332.078, 1180.846 1332.648, 1182.043 1333.216 C 1183.240 1333.784, 1184.439 1334.347, 1185.639 1334.909 C 1186.840 1335.472, 1188.042 1336.034, 1189.247 1336.589 C 1190.452 1337.144, 1191.659 1337.696, 1192.869 1338.241 C 1194.079 1338.786, 1195.292 1339.325, 1196.507 1339.859 C 1197.722 1340.393, 1198.939 1340.920, 1200.158 1341.445 C 1201.378 1341.969, 1202.601 1342.490, 1203.825 1343.006 C 1205.049 1343.521, 1206.274 1344.032, 1207.502 1344.538 C 1208.731 1345.045, 1209.964 1345.547, 1211.196 1346.046 C 1212.429 1346.545, 1213.661 1347.047, 1214.899 1347.533 C 1216.136 1348.019, 1217.379 1348.491, 1218.622 1348.964 C 1219.865 1349.437, 1221.109 1349.909, 1222.357 1350.372 C 1223.605 1350.835, 1224.858 1351.289, 1226.109 1351.742 C 1227.361 1352.195, 1228.612 1352.648, 1229.867 1353.091 C 1231.122 1353.534, 1232.381 1353.967, 1233.639 1354.403 C 1234.899 1354.838, 1236.158 1355.281, 1237.422 1355.704 C 1238.686 1356.126, 1239.956 1356.531, 1241.225 1356.936 C 1242.494 1357.341, 1243.764 1357.744, 1245.038 1358.134 C 1246.313 1358.524, 1247.592 1358.901, 1248.872 1359.276 C 1250.152 1359.650, 1251.433 1360.020, 1252.718 1360.382 C 1254.003 1360.745, 1255.291 1361.098, 1256.580 1361.450 C 1257.871 1361.802, 1259.161 1362.159, 1260.456 1362.494 C 1261.750 1362.829, 1263.046 1363.144, 1264.346 1363.459 C 1265.650 1363.775, 1266.960 1364.081, 1268.269 1364.384 C 1269.576 1364.687, 1270.882 1364.990, 1272.195 1365.277 C 1273.510 1365.564, 1274.830 1365.839, 1276.152 1366.105 C 1277.474 1366.371, 1278.796 1366.627, 1280.124 1366.872 C 1281.455 1367.118, 1282.791 1367.353, 1284.129 1367.577 C 1285.470 1367.801, 1286.816 1368.016, 1288.163 1368.216 C 1289.510 1368.417, 1290.861 1368.608, 1292.213 1368.779 C 1293.565 1368.950, 1294.919 1369.104, 1296.275 1369.242 C 1297.629 1369.379, 1298.986 1369.506, 1300.342 1369.607 C 1301.695 1369.707, 1303.048 1369.788, 1304.402 1369.844 C 1305.754 1369.901, 1307.107 1369.936, 1308.461 1369.947 C 1309.816 1369.958, 1311.176 1369.946, 1312.531 1369.910 C 1313.885 1369.873, 1315.239 1369.816, 1316.588 1369.728 C 1317.933 1369.641, 1319.278 1369.526, 1320.614 1369.385 C 1321.944 1369.244, 1323.270 1369.081, 1324.585 1368.883 C 1325.894 1368.686, 1327.197 1368.459, 1328.487 1368.201 C 1329.769 1367.945, 1331.042 1367.660, 1332.300 1367.342 C 1333.549 1367.026, 1334.787 1366.683, 1336.008 1366.303 C 1337.220 1365.925, 1338.420 1365.515, 1339.600 1365.070 C 1340.773 1364.627, 1341.931 1364.150, 1343.070 1363.639 C 1344.204 1363.130, 1345.324 1362.585, 1346.420 1362.009 C 1347.511 1361.435, 1348.585 1360.830, 1349.632 1360.192 C 1350.674 1359.558, 1351.694 1358.891, 1352.689 1358.192 C 1353.682 1357.495, 1354.657 1356.767, 1355.598 1356.004 C 1356.537 1355.243, 1357.448 1354.446, 1358.328 1353.621 C 1359.208 1352.796, 1360.059 1351.939, 1360.880 1351.056 C 1361.703 1350.171, 1362.500 1349.257, 1363.261 1348.318 C 1364.022 1347.379, 1364.752 1346.414, 1365.445 1345.423 C 1366.138 1344.431, 1366.794 1343.410, 1367.420 1342.369 C 1368.050 1341.325, 1368.650 1340.257, 1369.212 1339.168 C 1369.777 1338.073, 1370.307 1336.952, 1370.800 1335.815 C 1371.296 1334.673, 1371.751 1333.508, 1372.176 1332.333 C 1372.603 1331.153, 1372.999 1329.956, 1373.356 1328.747 C 1373.715 1327.532, 1374.036 1326.300, 1374.324 1325.058 C 1374.613 1323.810, 1374.865 1322.548, 1375.088 1321.278 C 1375.313 1320.001, 1375.509 1318.711, 1375.669 1317.416 C 1375.830 1316.115, 1375.954 1314.808, 1376.052 1313.492 C 1376.151 1312.166, 1376.222 1310.827, 1376.260 1309.491 C 1376.299 1308.152, 1376.302 1306.811, 1376.281 1305.469 C 1376.261 1304.123, 1376.209 1302.774, 1376.137 1301.425 C 1376.063 1300.073, 1375.964 1298.718, 1375.842 1297.366 C 1375.721 1296.011, 1375.576 1294.656, 1375.408 1293.304 C 1375.240 1291.951, 1375.045 1290.601, 1374.832 1289.253 C 1374.620 1287.903, 1374.386 1286.550, 1374.134 1285.208 C 1373.882 1283.872, 1373.610 1282.546, 1373.323 1281.219 C 1373.036 1279.891, 1372.728 1278.563, 1372.410 1277.242 C 1372.092 1275.924, 1371.760 1274.610, 1371.413 1273.300 C 1371.067 1271.992, 1370.704 1270.687, 1370.333 1269.389 C 1369.962 1268.093, 1369.582 1266.802, 1369.187 1265.516 C 1368.792 1264.232, 1368.384 1262.952, 1367.962 1261.677 C 1367.540 1260.403, 1367.098 1259.136, 1366.653 1257.871 C 1366.208 1256.605, 1365.757 1255.342, 1365.294 1254.084 C 1364.832 1252.829, 1364.362 1251.578, 1363.880 1250.333 C 1363.398 1249.090, 1362.899 1247.853, 1362.401 1246.619 C 1361.903 1245.387, 1361.402 1244.158, 1360.891 1242.935 C 1360.380 1241.713, 1359.863 1240.497, 1359.334 1239.283 C 1358.805 1238.068, 1358.268 1236.855, 1357.718 1235.648 C 1357.168 1234.441, 1356.604 1233.239, 1356.034 1232.040 C 1355.463 1230.839, 1354.883 1229.642, 1354.295 1228.450 C 1353.705 1227.257, 1353.104 1226.070, 1352.500 1224.884 C 1351.894 1223.698, 1351.283 1222.513, 1350.664 1221.333 C 1350.046 1220.153, 1349.418 1218.977, 1348.787 1217.803 C 1348.156 1216.629, 1347.521 1215.457, 1346.878 1214.289 C 1346.236 1213.123, 1345.586 1211.962, 1344.933 1210.802 C 1344.280 1209.643, 1343.624 1208.487, 1342.961 1207.334 C 1342.298 1206.180, 1341.630 1205.029, 1340.954 1203.882 C 1340.278 1202.735, 1339.593 1201.594, 1338.906 1200.454 C 1338.219 1199.313, 1337.533 1198.171, 1336.833 1197.038 C 1336.134 1195.905, 1335.421 1194.778, 1334.708 1193.654 C 1333.994 1192.531, 1333.277 1191.411, 1332.552 1190.295 C 1331.828 1189.181, 1331.098 1188.071, 1330.361 1186.964 C 1329.623 1185.856, 1328.878 1184.751, 1328.127 1183.652 C 1327.376 1182.553, 1326.615 1181.461, 1325.855 1180.370 C 1325.095 1179.278, 1324.338 1178.186, 1323.568 1177.102 C 1322.797 1176.017, 1322.017 1174.938, 1321.231 1173.865 C 1320.445 1172.791, 1319.649 1171.726, 1318.852 1170.662 C 1318.055 1169.599, 1317.258 1168.536, 1316.449 1167.482 C 1315.639 1166.428, 1314.819 1165.382, 1313.996 1164.339 C 1313.173 1163.297, 1312.344 1162.261, 1311.512 1161.227 C 1310.680 1160.193, 1309.848 1159.159, 1309.005 1158.134 C 1308.162 1157.108, 1307.309 1156.089, 1306.456 1155.071 C 1305.603 1154.052, 1304.752 1153.032, 1303.888 1152.023 C 1303.025 1151.013, 1302.146 1150.016, 1301.273 1149.014 C 1300.399 1148.011, 1299.527 1147.004, 1298.646 1146.006 C 1297.765 1145.009, 1296.879 1144.015, 1295.986 1143.028 C 1295.093 1142.041, 1294.191 1141.062, 1293.286 1140.085 C 1292.379 1139.107, 1291.466 1138.131, 1290.548 1137.163 C 1289.631 1136.195, 1288.710 1135.230, 1287.779 1134.276 C 1286.849 1133.321, 1285.908 1132.378, 1284.966 1131.436 C 1284.023 1130.494, 1283.078 1129.552, 1282.123 1128.623 C 1281.168 1127.693, 1280.206 1126.771, 1279.235 1125.859 C 1278.264 1124.949, 1277.283 1124.050, 1276.296 1123.157 C 1275.309 1122.263, 1274.316 1121.376, 1273.313 1120.501 C 1272.310 1119.626, 1271.296 1118.764, 1270.278 1117.906 C 1269.259 1117.046, 1268.234 1116.192, 1267.203 1115.345 C 1266.173 1114.498, 1265.140 1113.653, 1264.095 1112.824 C 1263.049 1111.995, 1261.992 1111.177, 1260.929 1110.369 C 1259.867 1109.560, 1258.794 1108.766, 1257.719 1107.974 C 1256.642 1107.182, 1255.562 1106.393, 1254.472 1105.617 C 1253.380 1104.839, 1252.279 1104.070, 1251.173 1103.313 C 1250.066 1102.557, 1248.955 1101.807, 1247.834 1101.075 C 1246.713 1100.344, 1245.582 1099.628, 1244.444 1098.925 C 1243.309 1098.223, 1242.167 1097.538, 1241.016 1096.862 C 1239.862 1096.185, 1238.698 1095.517, 1237.528 1094.868 C 1236.360 1094.220, 1235.185 1093.587, 1234.000 1092.972 C 1232.814 1092.356, 1231.618 1091.756, 1230.415 1091.174 C 1229.212 1090.593, 1228.002 1090.028, 1226.782 1089.482 C 1225.561 1088.936, 1224.328 1088.407, 1223.091 1087.901 C 1221.858 1087.395, 1220.619 1086.909, 1219.372 1086.446 C 1218.126 1085.983, 1216.873 1085.538, 1215.612 1085.121 C 1214.353 1084.705, 1213.085 1084.314, 1211.812 1083.946 C 1210.539 1083.579, 1209.258 1083.228, 1207.974 1082.916 C 1206.695 1082.605, 1205.410 1082.327, 1204.122 1082.075 C 1202.839 1081.824, 1201.551 1081.601, 1200.261 1081.406 C 1198.976 1081.213, 1197.687 1081.048, 1196.397 1080.911 C 1195.110 1080.774, 1193.819 1080.660, 1192.529 1080.586 C 1191.243 1080.511, 1189.953 1080.471, 1188.668 1080.462 C 1187.389 1080.453, 1186.112 1080.475, 1184.837 1080.533 C 1183.565 1080.591, 1182.294 1080.682, 1181.028 1080.809 C 1179.765 1080.935, 1178.505 1081.099, 1177.252 1081.291 C 1176.001 1081.482, 1174.754 1081.703, 1173.514 1081.957 C 1172.275 1082.210, 1171.040 1082.497, 1169.814 1082.811 C 1168.589 1083.126, 1167.371 1083.471, 1166.162 1083.843 C 1164.954 1084.214, 1163.755 1084.613, 1162.565 1085.039 C 1161.374 1085.467, 1160.189 1085.923, 1159.017 1086.405 C 1157.843 1086.889, 1156.681 1087.402, 1155.527 1087.938 C 1154.369 1088.475, 1153.218 1089.039, 1152.080 1089.625 C 1150.941 1090.211, 1149.812 1090.818, 1148.696 1091.455 C 1147.575 1092.095, 1146.468 1092.768, 1145.371 1093.456 C 1144.271 1094.146, 1143.182 1094.860, 1142.104 1095.590 C 1141.023 1096.323, 1139.954 1097.075, 1138.894 1097.847 C 1137.830 1098.623, 1136.777 1099.422, 1135.734 1100.235 C 1134.687 1101.050, 1133.652 1101.884, 1132.626 1102.729 C 1131.597 1103.576, 1130.579 1104.437, 1129.570 1105.311 C 1128.557 1106.189, 1127.554 1107.084, 1126.560 1107.986 C 1125.563 1108.891, 1124.576 1109.809, 1123.596 1110.733 C 1122.617 1111.658, 1121.649 1112.595, 1120.682 1113.534 C 1119.715 1114.473, 1118.752 1115.420, 1117.795 1116.370 C 1116.839 1117.319, 1115.887 1118.268, 1114.944 1119.230 C 1113.999 1120.192, 1113.066 1121.167, 1112.132 1122.140 C 1111.198 1123.113, 1110.269 1124.092, 1109.340 1125.070 C 1108.412 1126.047, 1107.487 1127.027, 1106.562 1128.004 C 1105.638 1128.980, 1104.715 1129.954, 1103.793 1130.930 C 1102.871 1131.907, 1101.950 1132.885, 1101.030 1133.863 C 1100.110 1134.841, 1099.192 1135.822, 1098.271 1136.799 C 1097.352 1137.775, 1096.433 1138.752, 1095.510 1139.723 C 1094.589 1140.693, 1093.666 1141.661, 1092.739 1142.623 C 1091.814 1143.583, 1090.882 1144.534, 1089.953 1145.489 C 1089.024 1146.444, 1088.098 1147.403, 1087.163 1148.351 C 1086.228 1149.299, 1085.285 1150.236, 1084.342 1151.175 C 1083.400 1152.113, 1082.454 1153.048, 1081.508 1153.983 C 1080.562 1154.917, 1079.611 1155.846, 1078.666 1156.782 C 1077.721 1157.718, 1076.783 1158.661, 1075.837 1159.597 C 1074.892 1160.532, 1073.942 1161.463, 1072.994 1162.395 C 1072.045 1163.328, 1071.096 1164.259, 1070.147 1165.191 C 1069.197 1166.122, 1068.245 1167.051, 1067.297 1167.985 C 1066.349 1168.918, 1065.407 1169.856, 1064.460 1170.789 C 1063.512 1171.722, 1062.560 1172.651, 1061.610 1173.581 C 1060.660 1174.511, 1059.709 1175.441, 1058.759 1176.371 C 1057.808 1177.301, 1056.856 1178.230, 1055.909 1179.164 C 1054.961 1180.097, 1054.018 1181.034, 1053.074 1181.970 C 1052.129 1182.906, 1051.186 1183.843, 1050.241 1184.779 C 1049.296 1185.715, 1048.350 1186.650, 1047.405 1187.585 C 1046.459 1188.520, 1045.514 1189.456, 1044.568 1190.389 C 1043.621 1191.323, 1042.671 1192.254, 1041.724 1193.187 C 1040.776 1194.120, 1039.831 1195.056, 1038.883 1195.990 C 1037.935 1196.923, 1036.985 1197.855, 1036.036 1198.788 C 1035.087 1199.721, 1034.138 1200.654, 1033.190 1201.588 C 1032.241 1202.522, 1031.293 1203.457, 1030.345 1204.392 C 1029.397 1205.327, 1028.450 1206.263, 1027.502 1207.198 C 1026.553 1208.132, 1025.602 1209.065, 1024.655 1210.001 C 1023.709 1210.937, 1022.765 1211.877, 1021.821 1212.815 C 1020.877 1213.754, 1019.933 1214.693, 1018.990 1215.632 C 1018.048 1216.572, 1017.108 1217.515, 1016.164 1218.454 C 1015.220 1219.393, 1014.269 1220.327, 1013.326 1221.267 C 1012.382 1222.207, 1011.443 1223.153, 1010.501 1224.095 C 1009.560 1225.037, 1008.619 1225.980, 1007.674 1226.920 C 1006.730 1227.861, 1005.781 1228.797, 1004.835 1229.736 C 1003.890 1230.675, 1002.945 1231.615, 1001.999 1232.555 C 1001.054 1233.494, 1000.107 1234.432, 999.164 1235.373 C 998.220 1236.315, 997.281 1237.261, 996.339 1238.204 C 995.397 1239.147, 994.453 1240.087, 993.512 1241.030 C 992.571 1241.973, 991.633 1242.918, 990.693 1243.861 C 989.754 1244.805, 988.816 1245.751, 987.875 1246.692 C 986.934 1247.633, 985.989 1248.571, 985.045 1249.508 C 984.100 1250.445, 983.154 1251.379, 982.208 1252.315 C 981.263 1253.251, 980.319 1254.188, 979.373 1255.123 C 978.426 1256.058, 977.478 1256.990, 976.531 1257.925 C 975.585 1258.859, 974.640 1259.795, 973.694 1260.729 C 972.748 1261.663, 971.802 1262.597, 970.855 1263.530 C 969.909 1264.464, 968.962 1265.397, 968.015 1266.329 C 967.068 1267.262, 966.120 1268.194, 965.173 1269.125 C 964.225 1270.057, 963.277 1270.989, 962.329 1271.920 C 961.381 1272.851, 960.430 1273.780, 959.484 1274.712 C 958.538 1275.645, 957.595 1276.580, 956.653 1277.516 C 955.710 1278.451, 954.770 1279.389, 953.828 1280.326 C 952.887 1281.262, 951.947 1282.201, 951.003 1283.134 C 950.059 1284.068, 949.109 1284.995, 948.163 1285.926 C 947.217 1286.858, 946.272 1287.789, 945.328 1288.723 C 944.385 1289.657, 943.446 1290.596, 942.501 1291.530 C 941.557 1292.464, 940.608 1293.393, 939.661 1294.324 C 938.715 1295.256, 937.768 1296.187, 936.822 1297.119 C 935.875 1298.050, 934.929 1298.981, 933.983 1299.913 C 933.036 1300.844, 932.090 1301.776, 931.144 1302.708 C 930.198 1303.639, 929.252 1304.571, 928.307 1305.503 C 927.361 1306.435, 926.415 1307.367, 925.470 1308.299 C 924.524 1309.232, 923.579 1310.164, 922.634 1311.097 C 921.688 1312.030, 920.743 1312.963, 919.798 1313.896 C 918.853 1314.830, 917.909 1315.764, 916.964 1316.698 C 916.019 1317.632, 915.075 1318.567, 914.130 1319.501 C 913.184 1320.434, 912.237 1321.366, 911.292 1322.300 C 910.347 1323.235, 909.404 1324.171, 908.460 1325.107 C 907.515 1326.043, 906.571 1326.979, 905.627 1327.915 C 904.683 1328.851, 903.737 1329.786, 902.794 1330.723 C 901.850 1331.660, 900.908 1332.598, 899.965 1333.537 C 899.022 1334.475, 898.080 1335.414, 897.137 1336.354 C 896.195 1337.294, 895.253 1338.235, 894.311 1339.176 C 893.369 1340.117, 892.429 1341.061, 891.486 1342.001 C 890.542 1342.941, 889.593 1343.875, 888.650 1344.816 C 887.707 1345.756, 886.770 1346.703, 885.826 1347.643 C 884.883 1348.584, 883.935 1349.519, 882.990 1350.457 C 882.044 1351.396, 881.097 1352.333, 880.154 1353.274 C 879.211 1354.215, 878.272 1355.160, 877.332 1356.103 C 876.391 1357.047, 875.451 1357.990, 874.511 1358.935 C 873.572 1359.880, 872.636 1360.829, 871.696 1361.773 C 870.756 1362.718, 869.814 1363.659, 868.872 1364.601 C 867.930 1365.544, 866.984 1366.482, 866.043 1367.426 C 865.102 1368.370, 864.165 1369.319, 863.226 1370.265 C 862.287 1371.211, 861.349 1372.158, 860.407 1373.102 C 859.464 1374.045, 858.515 1374.982, 857.572 1375.925 C 856.628 1376.868, 855.688 1377.814, 854.746 1378.758 C 853.804 1379.702, 852.859 1380.643, 851.918 1381.589 C 850.978 1382.534, 850.042 1383.485, 849.102 1384.431 C 848.162 1385.377, 847.220 1386.320, 846.278 1387.264 C 845.336 1388.208, 844.394 1389.151, 843.452 1390.094 C 842.509 1391.037, 841.566 1391.979, 840.623 1392.921 C 839.680 1393.863, 838.735 1394.802, 837.793 1395.746 C 836.851 1396.690, 835.914 1397.639, 834.973 1398.584 C 834.032 1399.529, 833.090 1400.472, 832.149 1401.416 C 831.207 1402.360, 830.271 1403.289, 829.324 1404.248 C 828.358 1405.227, 827.393 1406.226, 826.410 1407.232 C 825.405 1408.261, 824.385 1409.306, 823.358 1410.355 C 822.316 1411.419, 821.263 1412.498, 820.203 1413.572 C 819.133 1414.658, 818.052 1415.751, 816.966 1416.836 C 815.874 1417.925, 814.769 1419.011, 813.669 1420.096 C 812.570 1421.180, 811.468 1422.266, 810.368 1423.343 C 809.274 1424.413, 808.178 1425.480, 807.086 1426.537 C 806.006 1427.582, 804.926 1428.622, 803.853 1429.649 C 802.796 1430.662, 801.742 1431.666, 800.697 1432.655 C 799.673 1433.625, 798.652 1434.584, 797.646 1435.528 C 796.665 1436.450, 795.693 1437.363, 794.735 1438.256 C 793.805 1439.123, 792.884 1439.978, 791.979 1440.811 C 791.104 1441.614, 790.240 1442.403, 789.392 1443.168 C 788.580 1443.901, 787.780 1444.621, 786.995 1445.310 C 786.249 1445.966, 785.511 1446.601, 784.795 1447.211 C 784.122 1447.785, 783.459 1448.341, 782.822 1448.871 C 782.229 1449.364, 781.654 1449.845, 781.100 1450.290 C 780.592 1450.699, 780.096 1451.090, 779.626 1451.446 C 779.204 1451.765, 778.794 1452.069, 778.411 1452.331 C 778.078 1452.559, 777.756 1452.775, 777.462 1452.940 C 777.223 1453.074, 776.987 1453.210, 776.788 1453.268 C 776.642 1453.310, 776.476 1453.360, 776.391 1453.313 Z"/>
  </g>
</svg>
