<svg xmlns="http://www.w3.org/2000/svg" viewBox="0 0 706.294 701.441"   aria-label="Logo">
  <title>Logo</title>
  <g fill="#ffffff" fill-rule="evenodd">
    <path d="M 0.125 701.394 C 0.056 701.356, 0.016 701.253, 0.009 701.157 C 0.000 701.019, 0.093 700.824, 0.176 700.638 C 0.283 700.398, 0.456 700.129, 0.634 699.852 C 0.845 699.521, 1.103 699.165, 1.373 698.795 C 1.679 698.376, 2.023 697.930, 2.381 697.471 C 2.778 696.965, 3.207 696.433, 3.653 695.889 C 4.137 695.299, 4.648 694.683, 5.181 694.059 C 5.750 693.391, 6.352 692.706, 6.967 692.006 C 7.617 691.266, 8.292 690.505, 8.985 689.734 C 9.711 688.925, 10.464 688.101, 11.227 687.262 C 12.021 686.390, 12.834 685.496, 13.662 684.594 C 14.518 683.663, 15.394 682.714, 16.284 681.761 C 17.199 680.781, 18.138 679.793, 19.081 678.793 C 20.045 677.771, 21.022 676.734, 22.007 675.693 C 23.009 674.633, 24.025 673.563, 25.043 672.488 C 26.075 671.400, 27.115 670.300, 28.160 669.202 C 29.213 668.095, 30.273 666.981, 31.335 665.870 C 32.401 664.756, 33.473 663.638, 34.542 662.526 C 35.611 661.416, 36.680 660.303, 37.749 659.202 C 38.810 658.108, 39.880 657.024, 40.933 655.942 C 41.973 654.874, 43.007 653.806, 44.031 652.754 C 45.035 651.723, 46.035 650.698, 47.018 649.691 C 47.975 648.711, 48.916 647.757, 49.852 646.789 C 50.782 645.830, 51.698 644.872, 52.617 643.909 C 53.535 642.947, 54.448 641.980, 55.362 641.014 C 56.277 640.049, 57.193 639.084, 58.105 638.117 C 59.017 637.149, 59.928 636.181, 60.837 635.210 C 61.745 634.239, 62.651 633.265, 63.556 632.291 C 64.462 631.317, 65.365 630.340, 66.270 629.367 C 67.176 628.393, 68.086 627.422, 68.991 626.448 C 69.897 625.474, 70.801 624.499, 71.704 623.522 C 72.607 622.546, 73.508 621.568, 74.410 620.591 C 75.312 619.614, 76.217 618.638, 77.118 617.660 C 78.019 616.682, 78.919 615.703, 79.816 614.721 C 80.713 613.739, 81.607 612.754, 82.500 611.769 C 83.393 610.783, 84.283 609.795, 85.175 608.809 C 86.068 607.823, 86.962 606.837, 87.857 605.853 C 88.753 604.870, 89.652 603.891, 90.548 602.910 C 91.444 601.928, 92.340 600.945, 93.234 599.962 C 94.129 598.979, 95.022 597.995, 95.915 597.011 C 96.808 596.027, 97.701 595.043, 98.593 594.058 C 99.485 593.073, 100.375 592.086, 101.266 591.100 C 102.156 590.114, 103.044 589.125, 103.936 588.140 C 104.828 587.155, 105.723 586.173, 106.619 585.191 C 107.515 584.210, 108.414 583.230, 109.313 582.251 C 110.212 581.272, 111.112 580.294, 112.013 579.317 C 112.914 578.340, 113.819 577.365, 114.720 576.388 C 115.622 575.412, 116.524 574.435, 117.423 573.455 C 118.321 572.476, 119.215 571.492, 120.114 570.513 C 121.012 569.533, 121.914 568.556, 122.814 567.578 C 123.714 566.599, 124.612 565.619, 125.513 564.642 C 126.414 563.664, 127.319 562.690, 128.220 561.712 C 129.121 560.734, 130.019 559.754, 130.919 558.774 C 131.819 557.795, 132.718 556.816, 133.618 555.837 C 134.518 554.857, 135.419 553.877, 136.319 552.896 C 137.219 551.915, 138.120 550.935, 139.017 549.950 C 139.913 548.966, 140.805 547.978, 141.698 546.990 C 142.591 546.002, 143.484 545.013, 144.376 544.023 C 145.268 543.033, 146.158 542.040, 147.051 541.049 C 147.944 540.057, 148.841 539.068, 149.733 538.074 C 150.625 537.081, 151.512 536.084, 152.401 535.088 C 153.291 534.091, 154.181 533.094, 155.069 532.095 C 155.956 531.095, 156.841 530.093, 157.727 529.091 C 158.614 528.087, 159.504 527.085, 160.389 526.077 C 161.274 525.068, 162.160 524.056, 163.037 523.040 C 163.913 522.024, 164.778 521.003, 165.649 519.981 C 166.522 518.956, 167.401 517.930, 168.269 516.899 C 169.136 515.868, 170.003 514.837, 170.855 513.795 C 171.706 512.755, 172.544 511.706, 173.378 510.653 C 174.212 509.601, 175.042 508.545, 175.857 507.479 C 176.672 506.413, 177.473 505.338, 178.268 504.257 C 179.065 503.174, 179.856 502.083, 180.634 500.986 C 181.410 499.891, 182.179 498.790, 182.932 497.681 C 183.682 496.574, 184.422 495.461, 185.143 494.337 C 185.863 493.213, 186.567 492.078, 187.255 490.937 C 187.942 489.798, 188.615 488.652, 189.266 487.497 C 189.914 486.346, 190.544 485.188, 191.153 484.021 C 191.761 482.856, 192.351 481.682, 192.918 480.499 C 193.483 479.318, 194.026 478.126, 194.550 476.928 C 195.074 475.731, 195.580 474.526, 196.060 473.314 C 196.539 472.105, 196.999 470.890, 197.430 469.666 C 197.860 468.443, 198.265 467.210, 198.644 465.972 C 199.021 464.738, 199.370 463.496, 199.696 462.249 C 200.021 461.004, 200.325 459.754, 200.597 458.498 C 200.868 457.242, 201.108 455.979, 201.324 454.712 C 201.541 453.446, 201.733 452.173, 201.893 450.900 C 202.053 449.630, 202.180 448.358, 202.284 447.084 C 202.389 445.810, 202.472 444.533, 202.521 443.255 C 202.570 441.976, 202.589 440.694, 202.578 439.413 C 202.566 438.130, 202.526 436.844, 202.454 435.562 C 202.383 434.278, 202.281 432.995, 202.151 431.714 C 202.021 430.431, 201.862 429.148, 201.674 427.870 C 201.486 426.589, 201.266 425.309, 201.024 424.035 C 200.782 422.761, 200.515 421.490, 200.221 420.224 C 199.926 418.954, 199.603 417.687, 199.258 416.427 C 198.913 415.166, 198.544 413.910, 198.153 412.660 C 197.760 411.407, 197.344 410.159, 196.906 408.918 C 196.468 407.675, 196.004 406.439, 195.524 405.209 C 195.043 403.977, 194.543 402.751, 194.024 401.532 C 193.504 400.309, 192.966 399.091, 192.407 397.883 C 191.848 396.673, 191.262 395.473, 190.669 394.277 C 190.077 393.080, 189.473 391.889, 188.852 390.706 C 188.229 389.521, 187.586 388.346, 186.939 387.174 C 186.290 386.002, 185.636 384.833, 184.964 383.673 C 184.291 382.512, 183.599 381.359, 182.905 380.210 C 182.211 379.062, 181.512 377.920, 180.802 376.782 C 180.093 375.645, 179.373 374.514, 178.649 373.386 C 177.925 372.259, 177.197 371.136, 176.460 370.017 C 175.723 368.898, 174.976 367.784, 174.227 366.672 C 173.477 365.559, 172.719 364.449, 171.963 363.342 C 171.209 362.236, 170.457 361.134, 169.696 360.034 C 168.934 358.933, 168.163 357.836, 167.392 356.740 C 166.622 355.644, 165.843 354.555, 165.073 353.460 C 164.305 352.367, 163.544 351.271, 162.777 350.178 C 162.011 349.086, 161.238 347.998, 160.472 346.906 C 159.708 345.815, 158.951 344.720, 158.186 343.629 C 157.422 342.538, 156.651 341.450, 155.886 340.359 C 155.122 339.268, 154.361 338.175, 153.600 337.082 C 152.838 335.990, 152.076 334.898, 151.316 333.805 C 150.556 332.712, 149.797 331.619, 149.040 330.524 C 148.283 329.429, 147.527 328.333, 146.774 327.235 C 146.021 326.138, 145.266 325.041, 144.524 323.937 C 143.783 322.833, 143.057 321.721, 142.324 320.611 C 141.592 319.501, 140.859 318.391, 140.130 317.279 C 139.402 316.167, 138.674 315.055, 137.954 313.938 C 137.234 312.822, 136.524 311.700, 135.811 310.579 C 135.099 309.458, 134.383 308.338, 133.680 307.211 C 132.977 306.085, 132.286 304.953, 131.593 303.821 C 130.901 302.689, 130.211 301.555, 129.525 300.420 C 128.839 299.284, 128.155 298.147, 127.477 297.007 C 126.799 295.867, 126.126 294.726, 125.459 293.581 C 124.791 292.436, 124.132 291.285, 123.473 290.135 C 122.815 288.985, 122.155 287.835, 121.505 286.681 C 120.855 285.527, 120.215 284.369, 119.574 283.210 C 118.934 282.052, 118.294 280.893, 117.661 279.730 C 117.028 278.568, 116.399 277.403, 115.774 276.236 C 115.150 275.069, 114.527 273.901, 113.913 272.729 C 113.298 271.558, 112.691 270.383, 112.087 269.206 C 111.484 268.029, 110.887 266.849, 110.290 265.668 C 109.693 264.487, 109.095 263.305, 108.505 262.120 C 107.915 260.935, 107.330 259.747, 106.751 258.557 C 106.172 257.367, 105.599 256.175, 105.030 254.980 C 104.462 253.785, 103.899 252.587, 103.341 251.387 C 102.783 250.188, 102.230 248.986, 101.683 247.782 C 101.136 246.579, 100.595 245.374, 100.059 244.165 C 99.522 242.956, 98.993 241.742, 98.464 240.528 C 97.936 239.314, 97.407 238.100, 96.887 236.882 C 96.367 235.664, 95.856 234.441, 95.347 233.218 C 94.838 231.995, 94.328 230.773, 93.831 229.546 C 93.334 228.319, 92.847 227.087, 92.365 225.854 C 91.884 224.621, 91.408 223.386, 90.943 222.147 C 90.478 220.908, 90.021 219.666, 89.574 218.421 C 89.126 217.176, 88.691 215.928, 88.259 214.677 C 87.826 213.424, 87.399 212.168, 86.981 210.910 C 86.563 209.652, 86.153 208.393, 85.750 207.129 C 85.346 205.864, 84.948 204.594, 84.559 203.322 C 84.170 202.051, 83.783 200.778, 83.415 199.500 C 83.048 198.222, 82.701 196.939, 82.354 195.656 C 82.007 194.373, 81.664 193.090, 81.334 191.802 C 81.004 190.511, 80.686 189.215, 80.374 187.918 C 80.063 186.621, 79.756 185.322, 79.464 184.020 C 79.172 182.717, 78.892 181.411, 78.621 180.104 C 78.349 178.797, 78.084 177.490, 77.835 176.178 C 77.586 174.864, 77.352 173.545, 77.127 172.225 C 76.902 170.903, 76.684 169.578, 76.485 168.251 C 76.287 166.925, 76.102 165.599, 75.937 164.268 C 75.771 162.934, 75.629 161.593, 75.491 160.254 C 75.354 158.916, 75.219 157.578, 75.111 156.237 C 75.004 154.895, 74.918 153.550, 74.848 152.205 C 74.778 150.861, 74.727 149.516, 74.692 148.169 C 74.657 146.821, 74.632 145.469, 74.638 144.121 C 74.644 142.775, 74.676 141.431, 74.725 140.088 C 74.775 138.748, 74.841 137.409, 74.933 136.072 C 75.025 134.734, 75.139 133.396, 75.280 132.063 C 75.422 130.733, 75.590 129.404, 75.781 128.083 C 75.971 126.764, 76.180 125.450, 76.420 124.143 C 76.660 122.837, 76.927 121.536, 77.222 120.244 C 77.516 118.952, 77.838 117.665, 78.185 116.391 C 78.531 115.123, 78.900 113.866, 79.301 112.618 C 79.701 111.373, 80.128 110.135, 80.586 108.911 C 81.043 107.691, 81.529 106.480, 82.044 105.286 C 82.558 104.096, 83.102 102.918, 83.674 101.759 C 84.243 100.604, 84.839 99.464, 85.466 98.344 C 86.090 97.229, 86.740 96.129, 87.424 95.054 C 88.107 93.980, 88.822 92.925, 89.564 91.895 C 90.305 90.867, 91.075 89.863, 91.870 88.879 C 92.665 87.896, 93.486 86.928, 94.334 85.992 C 95.181 85.057, 96.057 84.147, 96.956 83.265 C 97.854 82.384, 98.778 81.530, 99.723 80.701 C 100.668 79.873, 101.633 79.070, 102.623 78.294 C 103.617 77.516, 104.636 76.765, 105.674 76.041 C 106.717 75.314, 107.783 74.613, 108.868 73.943 C 109.955 73.272, 111.064 72.628, 112.190 72.018 C 113.317 71.408, 114.465 70.833, 115.627 70.283 C 116.791 69.733, 117.974 69.214, 119.169 68.719 C 120.368 68.222, 121.583 67.750, 122.807 67.310 C 124.033 66.869, 125.273 66.459, 126.520 66.076 C 127.768 65.693, 129.025 65.341, 130.292 65.014 C 131.565 64.685, 132.852 64.385, 134.142 64.111 C 135.434 63.836, 136.732 63.585, 138.038 63.366 C 139.348 63.145, 140.668 62.960, 141.991 62.791 C 143.317 62.623, 144.652 62.477, 145.985 62.356 C 147.317 62.234, 148.650 62.136, 149.985 62.064 C 151.321 61.992, 152.658 61.949, 153.997 61.922 C 155.339 61.895, 156.685 61.887, 158.030 61.902 C 159.375 61.917, 160.721 61.957, 162.065 62.012 C 163.409 62.068, 164.753 62.145, 166.095 62.235 C 167.436 62.325, 168.777 62.429, 170.115 62.552 C 171.453 62.676, 172.788 62.819, 174.123 62.975 C 175.458 63.131, 176.793 63.304, 178.124 63.488 C 179.451 63.671, 180.775 63.866, 182.097 64.076 C 183.419 64.287, 184.738 64.515, 186.055 64.750 C 187.373 64.986, 188.691 65.229, 190.003 65.491 C 191.314 65.753, 192.619 66.037, 193.924 66.322 C 195.229 66.606, 196.534 66.893, 197.835 67.197 C 199.136 67.503, 200.436 67.826, 201.732 68.152 C 203.026 68.478, 204.316 68.810, 205.603 69.152 C 206.889 69.494, 208.172 69.845, 209.453 70.203 C 210.735 70.562, 212.016 70.929, 213.294 71.304 C 214.570 71.678, 215.844 72.061, 217.115 72.451 C 218.385 72.842, 219.652 73.240, 220.916 73.647 C 222.180 74.054, 223.441 74.469, 224.699 74.894 C 225.958 75.318, 227.214 75.754, 228.468 76.192 C 229.721 76.631, 230.972 77.071, 232.220 77.524 C 233.467 77.977, 234.712 78.440, 235.954 78.910 C 237.196 79.380, 238.435 79.860, 239.672 80.345 C 240.909 80.830, 242.144 81.322, 243.377 81.820 C 244.610 82.318, 245.840 82.822, 247.068 83.332 C 248.295 83.842, 249.520 84.360, 250.743 84.881 C 251.966 85.401, 253.187 85.927, 254.406 86.455 C 255.625 86.984, 256.844 87.509, 258.057 88.051 C 259.270 88.593, 260.476 89.151, 261.684 89.705 C 262.891 90.259, 264.098 90.814, 265.302 91.375 C 266.505 91.934, 267.706 92.498, 268.906 93.065 C 270.106 93.632, 271.305 94.201, 272.501 94.778 C 273.697 95.354, 274.891 95.934, 276.082 96.522 C 277.273 97.111, 278.460 97.707, 279.646 98.306 C 280.832 98.906, 282.014 99.513, 283.196 100.119 C 284.377 100.724, 285.558 101.328, 286.737 101.937 C 287.915 102.547, 289.093 103.157, 290.267 103.776 C 291.441 104.395, 292.612 105.022, 293.780 105.653 C 294.948 106.283, 296.113 106.919, 297.277 107.556 C 298.440 108.194, 299.604 108.832, 300.763 109.478 C 301.922 110.124, 303.078 110.777, 304.232 111.433 C 305.386 112.090, 306.538 112.752, 307.686 113.418 C 308.834 114.084, 309.978 114.755, 311.121 115.430 C 312.264 116.106, 313.404 116.788, 314.543 117.471 C 315.683 118.155, 316.823 118.839, 317.959 119.529 C 319.095 120.218, 320.228 120.910, 321.358 121.608 C 322.488 122.307, 323.613 123.013, 324.739 123.719 C 325.864 124.424, 326.990 125.130, 328.111 125.843 C 329.232 126.555, 330.349 127.274, 331.465 127.994 C 332.582 128.714, 333.700 129.436, 334.812 130.164 C 335.924 130.893, 337.029 131.631, 338.138 132.364 C 339.247 133.099, 340.360 133.830, 341.467 134.569 C 342.575 135.308, 343.679 136.051, 344.782 136.796 C 345.884 137.542, 346.983 138.291, 348.082 139.042 C 349.182 139.793, 350.280 140.551, 351.379 141.303 C 352.478 142.055, 353.567 142.799, 354.677 143.554 C 355.806 144.321, 356.950 145.080, 358.098 145.868 C 359.274 146.675, 360.461 147.504, 361.652 148.341 C 362.862 149.192, 364.082 150.060, 365.300 150.935 C 366.532 151.819, 367.771 152.713, 369.001 153.618 C 370.239 154.528, 371.472 155.457, 372.704 156.381 C 373.936 157.304, 375.170 158.231, 376.392 159.160 C 377.608 160.085, 378.819 161.016, 380.020 161.943 C 381.209 162.861, 382.393 163.780, 383.562 164.695 C 384.714 165.597, 385.857 166.500, 386.984 167.395 C 388.090 168.273, 389.185 169.149, 390.262 170.015 C 391.314 170.861, 392.355 171.700, 393.373 172.531 C 394.362 173.338, 395.337 174.139, 396.288 174.928 C 397.207 175.690, 398.111 176.444, 398.987 177.186 C 399.828 177.898, 400.651 178.604, 401.446 179.295 C 402.203 179.952, 402.942 180.600, 403.651 181.232 C 404.319 181.828, 404.969 182.414, 405.588 182.983 C 406.164 183.513, 406.718 184.037, 407.244 184.533 C 407.726 184.988, 408.197 185.426, 408.624 185.848 C 409.009 186.228, 409.375 186.599, 409.698 186.949 C 409.979 187.253, 410.248 187.547, 410.463 187.822 C 410.640 188.047, 410.815 188.267, 410.912 188.464 C 410.984 188.610, 411.070 188.772, 411.042 188.872 C 411.021 188.950, 410.940 189.016, 410.855 189.041 C 410.735 189.076, 410.541 189.009, 410.358 188.959 C 410.116 188.894, 409.831 188.775, 409.540 188.648 C 409.192 188.495, 408.812 188.296, 408.417 188.091 C 407.966 187.858, 407.480 187.597, 406.983 187.317 C 406.433 187.007, 405.857 186.660, 405.263 186.305 C 404.618 185.919, 403.944 185.510, 403.255 185.084 C 402.519 184.629, 401.757 184.149, 400.980 183.656 C 400.157 183.134, 399.310 182.590, 398.450 182.031 C 397.549 181.444, 396.630 180.829, 395.693 180.210 C 394.717 179.567, 393.718 178.909, 392.706 178.240 C 391.659 177.548, 390.590 176.843, 389.514 176.125 C 388.407 175.387, 387.285 174.630, 386.154 173.868 C 384.997 173.087, 383.825 172.295, 382.646 171.495 C 381.446 170.681, 380.235 169.853, 379.018 169.023 C 377.785 168.183, 376.541 167.336, 375.295 166.487 C 374.038 165.630, 372.771 164.769, 371.508 163.904 C 370.240 163.037, 368.974 162.156, 367.703 161.289 C 366.433 160.423, 365.154 159.563, 363.886 158.704 C 362.626 157.850, 361.368 156.993, 360.118 156.148 C 358.883 155.314, 357.653 154.480, 356.433 153.665 C 355.233 152.864, 354.037 152.070, 352.855 151.297 C 351.703 150.544, 350.575 149.802, 349.430 149.084 C 348.299 148.375, 347.163 147.702, 346.028 147.014 C 344.892 146.325, 343.757 145.634, 342.617 144.952 C 341.477 144.271, 340.333 143.595, 339.187 142.923 C 338.041 142.252, 336.890 141.589, 335.740 140.924 C 334.591 140.260, 333.443 139.592, 332.288 138.937 C 331.133 138.282, 329.971 137.640, 328.810 136.994 C 327.650 136.348, 326.489 135.704, 325.325 135.063 C 324.161 134.422, 322.996 133.781, 321.826 133.150 C 320.657 132.520, 319.483 131.899, 318.308 131.279 C 317.133 130.659, 315.955 130.044, 314.775 129.430 C 313.595 128.816, 312.414 128.202, 311.230 127.596 C 310.046 126.990, 308.860 126.389, 307.670 125.795 C 306.479 125.202, 305.284 124.620, 304.089 124.037 C 302.894 123.455, 301.697 122.875, 300.500 122.298 C 299.302 121.721, 298.103 121.146, 296.902 120.574 C 295.701 120.003, 294.500 119.432, 293.294 118.869 C 292.089 118.306, 290.883 117.747, 289.672 117.196 C 288.460 116.645, 287.244 116.103, 286.028 115.564 C 284.811 115.025, 283.591 114.494, 282.372 113.962 C 281.152 113.429, 279.934 112.893, 278.711 112.369 C 277.488 111.845, 276.262 111.332, 275.035 110.817 C 273.809 110.302, 272.582 109.785, 271.352 109.279 C 270.122 108.775, 268.889 108.279, 267.654 107.787 C 266.419 107.294, 265.180 106.808, 263.941 106.324 C 262.702 105.840, 261.465 105.353, 260.221 104.884 C 258.978 104.415, 257.729 103.964, 256.481 103.509 C 255.233 103.053, 253.985 102.600, 252.734 102.151 C 251.482 101.701, 250.226 101.252, 248.969 100.812 C 247.713 100.372, 246.456 99.940, 245.196 99.510 C 243.935 99.081, 242.672 98.650, 241.406 98.236 C 240.141 97.822, 238.873 97.421, 237.603 97.024 C 236.333 96.627, 235.059 96.239, 233.784 95.856 C 232.511 95.474, 231.237 95.096, 229.959 94.729 C 228.682 94.361, 227.403 94.005, 226.121 93.652 C 224.838 93.299, 223.552 92.950, 222.264 92.611 C 220.976 92.271, 219.686 91.938, 218.391 91.617 C 217.095 91.295, 215.794 90.987, 214.493 90.680 C 213.192 90.374, 211.890 90.068, 210.583 89.777 C 209.274 89.486, 207.962 89.205, 206.648 88.934 C 205.333 88.663, 204.018 88.405, 202.697 88.152 C 201.373 87.898, 200.044 87.648, 198.713 87.415 C 197.381 87.183, 196.046 86.965, 194.707 86.757 C 193.365 86.549, 192.020 86.348, 190.672 86.166 C 189.323 85.984, 187.969 85.818, 186.616 85.667 C 185.264 85.517, 183.910 85.379, 182.557 85.263 C 181.205 85.147, 179.853 85.046, 178.499 84.972 C 177.145 84.897, 175.787 84.846, 174.433 84.816 C 173.081 84.786, 171.729 84.775, 170.381 84.791 C 169.039 84.807, 167.701 84.843, 166.363 84.909 C 165.027 84.974, 163.689 85.065, 162.358 85.181 C 161.032 85.298, 159.707 85.435, 158.390 85.607 C 157.078 85.778, 155.770 85.977, 154.473 86.209 C 153.181 86.441, 151.898 86.706, 150.624 86.998 C 149.354 87.288, 148.089 87.603, 146.842 87.955 C 145.603 88.305, 144.377 88.685, 143.166 89.103 C 141.957 89.520, 140.758 89.976, 139.583 90.461 C 138.416 90.942, 137.267 91.457, 136.139 92.002 C 135.016 92.545, 133.908 93.117, 132.828 93.724 C 131.755 94.328, 130.704 94.964, 129.678 95.634 C 128.654 96.301, 127.653 97.003, 126.678 97.736 C 125.705 98.470, 124.753 99.239, 123.833 100.036 C 122.916 100.830, 122.023 101.655, 121.166 102.510 C 120.311 103.363, 119.488 104.248, 118.696 105.158 C 117.904 106.068, 117.142 107.005, 116.412 107.970 C 115.679 108.939, 114.977 109.940, 114.310 110.959 C 113.643 111.980, 113.010 113.023, 112.412 114.089 C 111.812 115.160, 111.248 116.260, 110.717 117.373 C 110.184 118.489, 109.682 119.624, 109.219 120.776 C 108.754 121.935, 108.324 123.114, 107.932 124.306 C 107.538 125.503, 107.185 126.719, 106.861 127.942 C 106.536 129.169, 106.240 130.407, 105.985 131.655 C 105.728 132.909, 105.514 134.172, 105.326 135.447 C 105.135 136.734, 104.975 138.037, 104.849 139.340 C 104.723 140.650, 104.632 141.965, 104.570 143.286 C 104.507 144.616, 104.479 145.957, 104.476 147.295 C 104.473 148.636, 104.501 149.978, 104.553 151.322 C 104.605 152.670, 104.687 154.022, 104.790 155.372 C 104.893 156.725, 105.020 158.080, 105.172 159.430 C 105.323 160.779, 105.502 162.125, 105.700 163.470 C 105.898 164.816, 106.119 166.162, 106.359 167.503 C 106.599 168.843, 106.862 170.178, 107.138 171.511 C 107.414 172.843, 107.707 174.173, 108.015 175.498 C 108.324 176.822, 108.647 178.142, 108.988 179.457 C 109.328 180.769, 109.691 182.074, 110.058 183.377 C 110.425 184.676, 110.797 185.971, 111.190 187.261 C 111.583 188.550, 112.000 189.833, 112.418 191.114 C 112.835 192.393, 113.256 193.670, 113.696 194.940 C 114.136 196.210, 114.594 197.474, 115.057 198.735 C 115.520 199.996, 115.994 201.254, 116.475 202.507 C 116.956 203.759, 117.444 205.007, 117.942 206.249 C 118.440 207.489, 118.948 208.722, 119.464 209.953 C 119.979 211.184, 120.504 212.411, 121.035 213.634 C 121.566 214.856, 122.107 216.073, 122.647 217.288 C 123.188 218.502, 123.725 219.714, 124.278 220.920 C 124.831 222.127, 125.394 223.329, 125.965 224.527 C 126.535 225.725, 127.117 226.917, 127.703 228.108 C 128.289 229.299, 128.882 230.486, 129.479 231.670 C 130.077 232.855, 130.673 234.039, 131.288 235.215 C 131.903 236.391, 132.538 237.558, 133.170 238.725 C 133.802 239.892, 134.435 241.058, 135.080 242.218 C 135.726 243.379, 136.384 244.534, 137.042 245.688 C 137.700 246.841, 138.360 247.993, 139.030 249.139 C 139.701 250.285, 140.381 251.426, 141.064 252.565 C 141.745 253.703, 142.429 254.839, 143.121 255.970 C 143.813 257.101, 144.510 258.230, 145.216 259.353 C 145.923 260.477, 146.641 261.595, 147.362 262.711 C 148.082 263.827, 148.810 264.940, 149.541 266.050 C 150.271 267.158, 151.004 268.263, 151.745 269.363 C 152.487 270.463, 153.235 271.557, 153.990 272.649 C 154.745 273.741, 155.508 274.829, 156.275 275.913 C 157.042 276.997, 157.814 278.079, 158.594 279.154 C 159.373 280.230, 160.157 281.301, 160.951 282.367 C 161.745 283.433, 162.548 284.493, 163.355 285.549 C 164.162 286.606, 164.979 287.655, 165.794 288.705 C 166.610 289.755, 167.422 290.808, 168.248 291.851 C 169.074 292.893, 169.914 293.926, 170.751 294.960 C 171.587 295.993, 172.419 297.028, 173.266 298.052 C 174.113 299.077, 174.974 300.090, 175.833 301.105 C 176.692 302.120, 177.552 303.134, 178.420 304.141 C 179.288 305.148, 180.165 306.145, 181.041 307.146 C 181.919 308.148, 182.797 309.153, 183.684 310.148 C 184.571 311.144, 185.463 312.134, 186.364 313.117 C 187.265 314.099, 188.176 315.072, 189.088 316.044 C 190.000 317.018, 190.914 317.992, 191.837 318.956 C 192.759 319.919, 193.690 320.873, 194.625 321.825 C 195.560 322.776, 196.497 323.725, 197.446 324.663 C 198.394 325.602, 199.351 326.534, 200.316 327.455 C 201.281 328.377, 202.255 329.288, 203.235 330.192 C 204.213 331.094, 205.197 331.988, 206.189 332.875 C 207.183 333.764, 208.186 334.645, 209.193 335.520 C 210.200 336.395, 211.207 337.267, 212.228 338.124 C 213.250 338.980, 214.285 339.819, 215.321 340.659 C 216.359 341.501, 217.400 342.344, 218.452 343.172 C 219.504 344.000, 220.564 344.821, 221.633 345.627 C 222.700 346.432, 223.779 347.221, 224.861 348.006 C 225.944 348.792, 227.031 349.574, 228.127 350.341 C 229.225 351.110, 230.330 351.869, 231.442 352.614 C 232.554 353.358, 233.672 354.093, 234.802 354.808 C 235.929 355.521, 237.068 356.212, 238.213 356.897 C 239.359 357.582, 240.514 358.257, 241.676 358.916 C 242.837 359.576, 244.006 360.224, 245.184 360.853 C 246.363 361.482, 247.550 362.096, 248.746 362.692 C 249.943 363.287, 251.152 363.863, 252.365 364.424 C 253.578 364.985, 254.796 365.533, 256.023 366.057 C 257.251 366.581, 258.487 367.088, 259.731 367.570 C 260.972 368.051, 262.221 368.510, 263.478 368.945 C 264.733 369.380, 265.996 369.794, 267.265 370.181 C 268.531 370.567, 269.804 370.928, 271.081 371.263 C 272.355 371.597, 273.635 371.906, 274.919 372.187 C 276.201 372.467, 277.491 372.724, 278.781 372.946 C 280.064 373.167, 281.349 373.357, 282.636 373.516 C 283.920 373.674, 285.208 373.802, 286.494 373.899 C 287.776 373.997, 289.060 374.064, 290.342 374.101 C 291.621 374.138, 292.900 374.149, 294.176 374.122 C 295.450 374.096, 296.723 374.035, 297.992 373.943 C 299.258 373.850, 300.523 373.725, 301.782 373.570 C 303.038 373.415, 304.290 373.229, 305.535 373.012 C 306.780 372.795, 308.020 372.547, 309.251 372.269 C 310.482 371.991, 311.706 371.685, 312.922 371.347 C 314.140 371.007, 315.352 370.633, 316.554 370.234 C 317.756 369.835, 318.950 369.408, 320.134 368.952 C 321.320 368.496, 322.497 368.010, 323.663 367.501 C 324.830 366.991, 325.987 366.456, 327.133 365.895 C 328.283 365.333, 329.422 364.742, 330.550 364.133 C 331.680 363.522, 332.799 362.892, 333.906 362.234 C 335.020 361.573, 336.122 360.881, 337.214 360.174 C 338.309 359.465, 339.393 358.734, 340.466 357.987 C 341.542 357.238, 342.606 356.470, 343.661 355.684 C 344.720 354.894, 345.769 354.081, 346.808 353.257 C 347.848 352.430, 348.878 351.588, 349.899 350.731 C 350.923 349.872, 351.935 348.994, 352.941 348.108 C 353.950 347.219, 354.949 346.314, 355.942 345.405 C 356.937 344.496, 357.924 343.578, 358.904 342.654 C 359.884 341.731, 360.858 340.805, 361.823 339.866 C 362.789 338.926, 363.744 337.969, 364.698 337.014 C 365.653 336.059, 366.603 335.098, 367.551 334.137 C 368.497 333.178, 369.444 332.224, 370.381 331.255 C 371.320 330.285, 372.247 329.300, 373.177 328.321 C 374.106 327.341, 375.030 326.355, 375.959 325.377 C 376.887 324.401, 377.821 323.434, 378.748 322.459 C 379.676 321.485, 380.601 320.507, 381.525 319.529 C 382.449 318.552, 383.368 317.569, 384.292 316.593 C 385.216 315.618, 386.141 314.644, 387.070 313.677 C 387.996 312.712, 388.927 311.756, 389.856 310.796 C 390.785 309.837, 391.711 308.875, 392.642 307.918 C 393.571 306.963, 394.503 306.009, 395.437 305.059 C 396.371 304.108, 397.306 303.161, 398.244 302.216 C 399.183 301.272, 400.125 300.333, 401.068 299.393 C 402.010 298.453, 402.957 297.518, 403.899 296.579 C 404.842 295.640, 405.779 294.695, 406.723 293.757 C 407.667 292.820, 408.619 291.890, 409.564 290.954 C 410.510 290.019, 411.452 289.080, 412.398 288.145 C 413.343 287.210, 414.290 286.277, 415.236 285.344 C 416.183 284.410, 417.133 283.481, 418.076 282.545 C 419.019 281.609, 419.953 280.664, 420.894 279.726 C 421.834 278.789, 422.778 277.856, 423.720 276.922 C 424.662 275.987, 425.604 275.054, 426.546 274.120 C 427.488 273.187, 428.431 272.255, 429.372 271.321 C 430.313 270.388, 431.252 269.453, 432.193 268.520 C 433.133 267.587, 434.074 266.655, 435.016 265.724 C 435.956 264.792, 436.898 263.861, 437.839 262.930 C 438.779 261.999, 439.720 261.068, 440.661 260.137 C 441.602 259.207, 442.543 258.276, 443.484 257.345 C 444.424 256.415, 445.365 255.484, 446.306 254.554 C 447.246 253.624, 448.187 252.693, 449.127 251.763 C 450.068 250.832, 451.008 249.902, 451.949 248.971 C 452.889 248.040, 453.830 247.110, 454.770 246.179 C 455.711 245.248, 456.651 244.317, 457.591 243.386 C 458.532 242.454, 459.472 241.523, 460.412 240.591 C 461.353 239.659, 462.293 238.727, 463.233 237.795 C 464.174 236.862, 465.114 235.930, 466.054 234.996 C 466.994 234.063, 467.937 233.132, 468.875 232.195 C 469.813 231.259, 470.746 230.316, 471.684 229.378 C 472.623 228.440, 473.565 227.505, 474.507 226.569 C 475.449 225.634, 476.393 224.700, 477.337 223.765 C 478.280 222.831, 479.226 221.899, 480.169 220.964 C 481.112 220.029, 482.056 219.095, 482.997 218.158 C 483.939 217.221, 484.879 216.282, 485.819 215.342 C 486.759 214.403, 487.695 213.458, 488.637 212.519 C 489.579 211.581, 490.528 210.649, 491.472 209.712 C 492.417 208.775, 493.360 207.836, 494.304 206.898 C 495.247 205.959, 496.190 205.020, 497.134 204.082 C 498.078 203.144, 499.021 202.205, 499.968 201.269 C 500.915 200.333, 501.869 199.404, 502.815 198.467 C 503.761 197.530, 504.702 196.589, 505.644 195.648 C 506.586 194.707, 507.526 193.764, 508.467 192.823 C 509.409 191.882, 510.352 190.942, 511.294 190.002 C 512.236 189.063, 513.180 188.124, 514.122 187.185 C 515.064 186.245, 516.003 185.303, 516.948 184.366 C 517.893 183.430, 518.845 182.500, 519.791 181.565 C 520.738 180.630, 521.680 179.690, 522.626 178.754 C 523.572 177.818, 524.519 176.884, 525.467 175.950 C 526.415 175.016, 527.366 174.085, 528.313 173.150 C 529.259 172.215, 530.201 171.276, 531.145 170.339 C 532.089 169.402, 533.036 168.468, 533.978 167.531 C 534.921 166.593, 535.858 165.652, 536.800 164.714 C 537.741 163.777, 538.685 162.843, 539.626 161.907 C 540.567 160.971, 541.508 160.034, 542.447 159.097 C 543.386 158.160, 544.321 157.220, 545.261 156.285 C 546.201 155.350, 547.142 154.418, 548.086 153.488 C 549.030 152.558, 549.982 151.635, 550.926 150.705 C 551.869 149.775, 552.808 148.839, 553.749 147.906 C 554.690 146.974, 555.631 146.041, 556.572 145.109 C 557.513 144.177, 558.455 143.246, 559.395 142.313 C 560.335 141.381, 561.271 140.444, 562.211 139.512 C 563.151 138.580, 564.095 137.651, 565.036 136.720 C 565.977 135.788, 566.914 134.853, 567.856 133.923 C 568.798 132.993, 569.746 132.068, 570.689 131.139 C 571.632 130.209, 572.572 129.277, 573.514 128.347 C 574.455 127.416, 575.397 126.485, 576.338 125.554 C 577.280 124.624, 578.221 123.693, 579.162 122.762 C 580.103 121.831, 581.045 120.900, 581.986 119.969 C 582.927 119.037, 583.868 118.106, 584.809 117.174 C 585.750 116.242, 586.691 115.311, 587.632 114.378 C 588.573 113.446, 589.514 112.514, 590.454 111.581 C 591.395 110.647, 592.334 109.712, 593.273 108.777 C 594.213 107.841, 595.151 106.903, 596.093 105.968 C 597.034 105.034, 597.979 104.102, 598.923 103.169 C 599.866 102.237, 600.812 101.306, 601.756 100.373 C 602.699 99.439, 603.642 98.505, 604.584 97.571 C 605.527 96.636, 606.469 95.701, 607.412 94.766 C 608.355 93.831, 609.298 92.896, 610.241 91.961 C 611.184 91.026, 612.127 90.090, 613.071 89.156 C 614.015 88.221, 614.961 87.289, 615.905 86.355 C 616.849 85.420, 617.792 84.484, 618.734 83.548 C 619.676 82.611, 620.617 81.673, 621.557 80.735 C 622.498 79.797, 623.438 78.858, 624.378 77.918 C 625.319 76.979, 626.260 76.040, 627.199 75.098 C 628.137 74.157, 629.071 73.211, 630.008 72.269 C 630.945 71.326, 631.881 70.382, 632.821 69.442 C 633.760 68.501, 634.700 67.563, 635.642 66.625 C 636.584 65.687, 637.530 64.753, 638.472 63.816 C 639.415 62.879, 640.356 61.940, 641.297 61.001 C 642.239 60.062, 643.182 59.124, 644.122 58.183 C 645.062 57.242, 645.996 56.295, 646.937 55.356 C 647.879 54.417, 648.827 53.485, 649.771 52.548 C 650.715 51.611, 651.661 50.688, 652.600 49.734 C 653.553 48.766, 654.485 47.773, 655.448 46.778 C 656.435 45.757, 657.437 44.719, 658.453 43.684 C 659.487 42.631, 660.542 41.574, 661.598 40.513 C 662.667 39.440, 663.745 38.359, 664.828 37.282 C 665.916 36.199, 667.014 35.113, 668.110 34.031 C 669.208 32.949, 670.310 31.864, 671.411 30.789 C 672.507 29.718, 673.607 28.649, 674.702 27.590 C 675.787 26.541, 676.875 25.498, 677.950 24.463 C 679.011 23.442, 680.063 22.420, 681.112 21.421 C 682.142 20.439, 683.172 19.472, 684.187 18.517 C 685.179 17.584, 686.163 16.661, 687.134 15.757 C 688.078 14.879, 689.015 14.013, 689.936 13.168 C 690.825 12.352, 691.706 11.550, 692.568 10.769 C 693.396 10.019, 694.210 9.282, 695.009 8.573 C 695.770 7.897, 696.523 7.241, 697.253 6.608 C 697.942 6.011, 698.614 5.426, 699.269 4.876 C 699.881 4.362, 700.485 3.871, 701.061 3.405 C 701.590 2.977, 702.103 2.561, 702.594 2.183 C 703.036 1.842, 703.468 1.519, 703.872 1.232 C 704.225 0.982, 704.567 0.742, 704.881 0.551 C 705.142 0.392, 705.397 0.237, 705.619 0.148 C 705.786 0.082, 705.966 0.000, 706.079 0.026 C 706.160 0.046, 706.235 0.110, 706.260 0.186 C 706.294 0.291, 706.221 0.469, 706.163 0.631 C 706.085 0.848, 705.938 1.100, 705.788 1.358 C 705.606 1.670, 705.380 2.014, 705.135 2.362 C 704.854 2.762, 704.525 3.181, 704.186 3.615 C 703.809 4.098, 703.399 4.608, 702.970 5.128 C 702.504 5.694, 702.002 6.279, 701.488 6.883 C 700.937 7.530, 700.365 8.206, 699.769 8.888 C 699.138 9.611, 698.475 10.350, 697.800 11.104 C 697.091 11.895, 696.360 12.707, 695.610 13.527 C 694.829 14.382, 694.020 15.248, 693.202 16.130 C 692.355 17.042, 691.492 17.973, 690.614 18.910 C 689.711 19.875, 688.785 20.850, 687.856 21.838 C 686.904 22.851, 685.945 23.884, 684.971 24.916 C 683.978 25.967, 682.968 27.025, 681.955 28.089 C 680.928 29.168, 679.890 30.255, 678.847 31.343 C 677.796 32.441, 676.736 33.546, 675.673 34.646 C 674.605 35.752, 673.524 36.856, 672.452 37.962 C 671.380 39.068, 670.310 40.181, 669.241 41.284 C 668.178 42.381, 667.110 43.473, 666.054 44.560 C 665.010 45.635, 663.973 46.712, 662.941 47.770 C 661.928 48.809, 660.915 49.839, 659.918 50.852 C 658.945 51.841, 657.979 52.802, 657.032 53.777 C 656.099 54.738, 655.193 55.697, 654.277 56.660 C 653.362 57.623, 652.451 58.591, 651.538 59.556 C 650.626 60.521, 649.714 61.486, 648.803 62.452 C 647.892 63.417, 646.981 64.383, 646.071 65.349 C 645.162 66.315, 644.251 67.279, 643.344 68.247 C 642.438 69.215, 641.536 70.187, 640.631 71.157 C 639.727 72.126, 638.820 73.094, 637.917 74.065 C 637.013 75.035, 636.111 76.007, 635.209 76.979 C 634.307 77.950, 633.404 78.921, 632.503 79.894 C 631.603 80.867, 630.702 81.840, 629.804 82.815 C 628.907 83.791, 628.014 84.770, 627.116 85.746 C 626.219 86.722, 625.315 87.692, 624.420 88.669 C 623.524 89.646, 622.634 90.628, 621.743 91.609 C 620.852 92.591, 619.965 93.575, 619.074 94.557 C 618.184 95.539, 617.291 96.520, 616.399 97.500 C 615.507 98.481, 614.615 99.461, 613.722 100.441 C 612.830 101.421, 611.935 102.398, 611.045 103.379 C 610.155 104.361, 609.272 105.349, 608.383 106.331 C 607.493 107.314, 606.600 108.292, 605.709 109.272 C 604.818 110.253, 603.930 111.236, 603.038 112.216 C 602.146 113.196, 601.250 114.173, 600.356 115.152 C 599.463 116.131, 598.572 117.113, 597.677 118.091 C 596.782 119.069, 595.885 120.046, 594.987 121.021 C 594.088 121.997, 593.186 122.970, 592.286 123.945 C 591.386 124.920, 590.487 125.895, 589.586 126.870 C 588.686 127.845, 587.784 128.818, 586.884 129.795 C 585.985 130.771, 585.087 131.749, 584.190 132.728 C 583.293 133.706, 582.396 134.686, 581.500 135.667 C 580.605 136.647, 579.713 137.632, 578.816 138.611 C 577.919 139.591, 577.015 140.564, 576.117 141.542 C 575.219 142.521, 574.325 143.503, 573.428 144.483 C 572.530 145.463, 571.628 146.439, 570.732 147.421 C 569.835 148.403, 568.945 149.390, 568.050 150.373 C 567.155 151.358, 566.258 152.341, 565.363 153.325 C 564.466 154.310, 563.571 155.296, 562.675 156.281 C 561.778 157.266, 560.879 158.249, 559.984 159.236 C 559.089 160.224, 558.194 161.214, 557.303 162.206 C 556.411 163.198, 555.523 164.192, 554.634 165.187 C 553.745 166.183, 552.857 167.180, 551.969 168.179 C 551.078 169.180, 550.189 170.184, 549.298 171.187 C 548.408 172.189, 547.512 173.186, 546.627 174.192 C 545.741 175.198, 544.862 176.211, 543.984 177.223 C 543.107 178.234, 542.232 179.246, 541.359 180.262 C 540.486 181.279, 539.616 182.298, 538.746 183.321 C 537.875 184.347, 537.000 185.374, 536.137 186.409 C 535.273 187.444, 534.416 188.485, 533.564 189.530 C 532.711 190.577, 531.860 191.630, 531.020 192.688 C 530.182 193.744, 529.349 194.804, 528.529 195.874 C 527.711 196.943, 526.901 198.019, 526.106 199.103 C 525.312 200.186, 524.534 201.277, 523.761 202.374 C 522.987 203.473, 522.216 204.576, 521.466 205.691 C 520.717 206.803, 519.980 207.926, 519.262 209.055 C 518.546 210.181, 517.846 211.315, 517.163 212.458 C 516.480 213.599, 515.810 214.751, 515.162 215.909 C 514.516 217.064, 513.886 218.226, 513.279 219.397 C 512.675 220.563, 512.090 221.736, 511.528 222.920 C 510.966 224.103, 510.427 225.299, 509.909 226.500 C 509.392 227.697, 508.897 228.903, 508.423 230.116 C 507.950 231.327, 507.494 232.545, 507.069 233.771 C 506.645 234.996, 506.248 236.231, 505.875 237.471 C 505.502 238.709, 505.150 239.957, 504.829 241.207 C 504.509 242.454, 504.218 243.705, 503.950 244.962 C 503.682 246.217, 503.433 247.477, 503.221 248.741 C 503.009 250.003, 502.831 251.270, 502.677 252.540 C 502.523 253.810, 502.392 255.083, 502.297 256.358 C 502.202 257.633, 502.143 258.912, 502.108 260.190 C 502.072 261.469, 502.063 262.747, 502.083 264.027 C 502.103 265.311, 502.149 266.597, 502.229 267.880 C 502.310 269.165, 502.427 270.449, 502.567 271.730 C 502.707 273.012, 502.871 274.294, 503.067 275.571 C 503.265 276.849, 503.497 278.124, 503.750 279.395 C 504.004 280.669, 504.286 281.941, 504.589 283.207 C 504.893 284.475, 505.219 285.739, 505.571 286.996 C 505.924 288.255, 506.305 289.509, 506.704 290.757 C 507.105 292.008, 507.529 293.253, 507.973 294.491 C 508.418 295.731, 508.885 296.966, 509.372 298.193 C 509.861 299.423, 510.371 300.648, 510.900 301.863 C 511.430 303.079, 511.985 304.285, 512.551 305.487 C 513.118 306.692, 513.701 307.892, 514.301 309.083 C 514.902 310.276, 515.522 311.461, 516.152 312.640 C 516.783 313.820, 517.426 314.995, 518.085 316.161 C 518.744 317.329, 519.425 318.487, 520.106 319.643 C 520.787 320.798, 521.473 321.949, 522.168 323.094 C 522.864 324.239, 523.566 325.379, 524.280 326.513 C 524.997 327.650, 525.730 328.779, 526.461 329.907 C 527.191 331.035, 527.924 332.162, 528.665 333.281 C 529.406 334.400, 530.158 335.512, 530.906 336.623 C 531.653 337.732, 532.401 338.837, 533.152 339.942 C 533.902 341.046, 534.651 342.149, 535.409 343.248 C 536.168 344.347, 536.936 345.441, 537.701 346.536 C 538.465 347.631, 539.230 348.725, 539.998 349.816 C 540.767 350.908, 541.542 351.997, 542.313 353.087 C 543.082 354.177, 543.849 355.267, 544.617 356.357 C 545.384 357.446, 546.153 358.534, 546.917 359.624 C 547.681 360.712, 548.438 361.803, 549.201 362.891 C 549.964 363.980, 550.733 365.065, 551.495 366.155 C 552.257 367.244, 553.014 368.336, 553.773 369.427 C 554.533 370.518, 555.294 371.609, 556.051 372.701 C 556.809 373.793, 557.568 374.884, 558.319 375.980 C 559.070 377.076, 559.817 378.173, 560.556 379.276 C 561.294 380.377, 562.022 381.484, 562.751 382.592 C 563.479 383.699, 564.201 384.809, 564.924 385.920 C 565.647 387.031, 566.373 388.142, 567.089 389.258 C 567.805 390.374, 568.512 391.495, 569.219 392.616 C 569.926 393.737, 570.628 394.862, 571.330 395.986 C 572.033 397.111, 572.739 398.233, 573.432 399.363 C 574.126 400.492, 574.806 401.629, 575.491 402.764 C 576.175 403.899, 576.861 405.034, 577.538 406.174 C 578.216 407.313, 578.888 408.457, 579.555 409.602 C 580.223 410.747, 580.885 411.895, 581.543 413.046 C 582.200 414.197, 582.850 415.353, 583.499 416.509 C 584.149 417.665, 584.795 418.824, 585.439 419.984 C 586.082 421.143, 586.727 422.301, 587.361 423.466 C 587.994 424.631, 588.613 425.802, 589.238 426.972 C 589.864 428.142, 590.494 429.311, 591.111 430.486 C 591.729 431.661, 592.339 432.841, 592.944 434.022 C 593.549 435.204, 594.144 436.389, 594.739 437.575 C 595.334 438.762, 595.927 439.949, 596.513 441.139 C 597.100 442.330, 597.676 443.525, 598.256 444.719 C 598.837 445.915, 599.422 447.109, 599.997 448.308 C 600.571 449.506, 601.136 450.708, 601.701 451.911 C 602.266 453.114, 602.833 454.316, 603.385 455.525 C 603.937 456.734, 604.471 457.950, 605.011 459.164 C 605.550 460.379, 606.091 461.593, 606.622 462.812 C 607.154 464.030, 607.683 465.251, 608.199 466.476 C 608.715 467.700, 609.219 468.928, 609.717 470.158 C 610.215 471.390, 610.702 472.626, 611.187 473.862 C 611.672 475.098, 612.153 476.336, 612.628 477.576 C 613.102 478.816, 613.570 480.059, 614.034 481.305 C 614.499 482.551, 614.958 483.801, 615.412 485.052 C 615.867 486.303, 616.321 487.552, 616.760 488.808 C 617.199 490.064, 617.626 491.325, 618.044 492.588 C 618.463 493.850, 618.869 495.116, 619.269 496.384 C 619.668 497.651, 620.060 498.920, 620.441 500.193 C 620.823 501.466, 621.192 502.742, 621.557 504.020 C 621.922 505.300, 622.283 506.583, 622.632 507.867 C 622.980 509.152, 623.319 510.439, 623.646 511.729 C 623.974 513.017, 624.288 514.307, 624.596 515.601 C 624.904 516.897, 625.209 518.197, 625.496 519.499 C 625.783 520.800, 626.054 522.103, 626.319 523.409 C 626.584 524.717, 626.840 526.030, 627.084 527.342 C 627.327 528.653, 627.564 529.963, 627.781 531.279 C 627.999 532.598, 628.200 533.923, 628.389 535.249 C 628.578 536.575, 628.755 537.905, 628.916 539.235 C 629.077 540.566, 629.223 541.898, 629.356 543.232 C 629.488 544.567, 629.609 545.905, 629.711 547.243 C 629.813 548.581, 629.905 549.920, 629.968 551.259 C 630.032 552.597, 630.067 553.937, 630.093 555.277 C 630.119 556.618, 630.136 557.961, 630.125 559.302 C 630.114 560.641, 630.084 561.981, 630.028 563.318 C 629.971 564.653, 629.889 565.987, 629.788 567.319 C 629.687 568.650, 629.569 569.982, 629.423 571.307 C 629.276 572.631, 629.107 573.952, 628.909 575.268 C 628.712 576.581, 628.487 577.892, 628.239 579.194 C 627.991 580.491, 627.721 581.781, 627.422 583.065 C 627.123 584.350, 626.799 585.629, 626.445 586.899 C 626.091 588.167, 625.709 589.432, 625.297 590.678 C 624.888 591.918, 624.448 593.144, 623.982 594.358 C 623.518 595.568, 623.032 596.768, 622.510 597.950 C 621.989 599.132, 621.434 600.300, 620.852 601.450 C 620.271 602.597, 619.659 603.729, 619.022 604.841 C 618.387 605.948, 617.727 607.036, 617.038 608.107 C 616.348 609.178, 615.629 610.235, 614.884 611.266 C 614.141 612.292, 613.373 613.299, 612.572 614.278 C 611.772 615.256, 610.937 616.209, 610.080 617.137 C 609.226 618.063, 608.347 618.964, 607.441 619.840 C 606.533 620.718, 605.594 621.570, 604.638 622.396 C 603.681 623.223, 602.704 624.024, 601.703 624.797 C 600.698 625.573, 599.668 626.323, 598.619 627.042 C 597.567 627.762, 596.488 628.454, 595.398 629.115 C 594.310 629.774, 593.205 630.403, 592.082 631.003 C 590.957 631.605, 589.813 632.177, 588.656 632.722 C 587.495 633.269, 586.318 633.788, 585.128 634.280 C 583.935 634.773, 582.727 635.242, 581.506 635.674 C 580.281 636.107, 579.039 636.500, 577.789 636.873 C 576.535 637.247, 575.267 637.593, 573.993 637.913 C 572.714 638.234, 571.423 638.531, 570.129 638.798 C 568.834 639.064, 567.531 639.301, 566.223 639.513 C 564.915 639.725, 563.600 639.907, 562.282 640.070 C 560.960 640.233, 559.634 640.375, 558.305 640.489 C 556.972 640.603, 555.632 640.687, 554.294 640.751 C 552.955 640.816, 551.613 640.853, 550.273 640.875 C 548.932 640.897, 547.592 640.903, 546.250 640.884 C 544.906 640.864, 543.559 640.817, 542.216 640.758 C 540.875 640.699, 539.535 640.625, 538.196 640.531 C 536.855 640.438, 535.513 640.325, 534.177 640.195 C 532.843 640.065, 531.514 639.915, 530.185 639.752 C 528.854 639.589, 527.524 639.410, 526.198 639.217 C 524.872 639.023, 523.549 638.810, 522.227 638.591 C 520.905 638.372, 519.584 638.148, 518.267 637.905 C 516.951 637.662, 515.637 637.400, 514.326 637.132 C 513.016 636.863, 511.708 636.582, 510.404 636.294 C 509.102 636.007, 507.803 635.714, 506.507 635.406 C 505.209 635.098, 503.914 634.773, 502.621 634.446 C 501.328 634.119, 500.036 633.788, 498.749 633.444 C 497.464 633.100, 496.185 632.744, 494.906 632.382 C 493.627 632.019, 492.348 631.649, 491.074 631.269 C 489.799 630.890, 488.529 630.502, 487.260 630.108 C 485.991 629.713, 484.723 629.314, 483.460 628.904 C 482.199 628.495, 480.942 628.075, 479.685 627.650 C 478.427 627.224, 477.168 626.795, 475.914 626.352 C 474.659 625.909, 473.409 625.448, 472.160 624.991 C 470.913 624.534, 469.666 624.078, 468.424 623.610 C 467.181 623.142, 465.942 622.664, 464.704 622.182 C 463.466 621.701, 462.230 621.214, 460.997 620.720 C 459.764 620.226, 458.533 619.725, 457.305 619.220 C 456.076 618.715, 454.849 618.209, 453.626 617.689 C 452.403 617.169, 451.185 616.633, 449.967 616.099 C 448.749 615.565, 447.531 615.028, 446.317 614.485 C 445.104 613.942, 443.896 613.392, 442.687 612.842 C 441.478 612.292, 440.268 611.744, 439.063 611.186 C 437.858 610.627, 436.657 610.060, 435.458 609.489 C 434.259 608.918, 433.063 608.341, 431.867 607.761 C 430.671 607.181, 429.473 606.599, 428.281 606.009 C 427.089 605.420, 425.903 604.820, 424.715 604.222 C 423.527 603.625, 422.341 603.028, 421.156 602.427 C 419.970 601.825, 418.785 601.223, 417.605 600.612 C 416.424 600.002, 415.245 599.386, 414.071 598.762 C 412.896 598.139, 411.727 597.502, 410.557 596.870 C 409.388 596.239, 408.220 595.610, 407.054 594.973 C 405.889 594.336, 404.724 593.697, 403.563 593.050 C 402.403 592.402, 401.246 591.747, 400.091 591.090 C 398.936 590.432, 397.784 589.770, 396.635 589.105 C 395.485 588.441, 394.336 587.775, 393.192 587.100 C 392.047 586.425, 390.909 585.738, 389.770 585.055 C 388.630 584.371, 387.492 583.687, 386.355 582.998 C 385.219 582.310, 384.082 581.623, 382.952 580.925 C 381.821 580.227, 380.697 579.518, 379.572 578.811 C 378.446 578.104, 377.320 577.398, 376.200 576.683 C 375.080 575.967, 373.965 575.242, 372.850 574.517 C 371.736 573.791, 370.626 573.059, 369.514 572.329 C 368.403 571.600, 367.291 570.872, 366.182 570.140 C 365.072 569.408, 363.965 568.672, 362.857 567.936 C 361.749 567.201, 360.639 566.469, 359.535 565.729 C 358.431 564.988, 357.331 564.240, 356.231 563.492 C 355.132 562.744, 354.037 561.991, 352.939 561.239 C 351.839 560.485, 350.752 559.735, 349.636 558.974 C 348.492 558.195, 347.324 557.421, 346.158 556.619 C 344.966 555.801, 343.762 554.963, 342.561 554.112 C 341.342 553.249, 340.121 552.360, 338.897 551.474 C 337.662 550.580, 336.419 549.681, 335.184 548.772 C 333.945 547.859, 332.707 546.934, 331.476 546.009 C 330.246 545.086, 329.017 544.156, 327.800 543.227 C 326.590 542.303, 325.387 541.371, 324.193 540.449 C 323.011 539.537, 321.832 538.632, 320.671 537.726 C 319.529 536.834, 318.396 535.942, 317.282 535.056 C 316.191 534.188, 315.115 533.317, 314.055 532.461 C 313.022 531.626, 311.999 530.799, 311.000 529.981 C 310.031 529.188, 309.077 528.401, 308.146 527.627 C 307.249 526.881, 306.367 526.144, 305.512 525.420 C 304.694 524.727, 303.892 524.043, 303.121 523.372 C 302.388 522.735, 301.676 522.105, 300.992 521.494 C 300.349 520.920, 299.722 520.358, 299.130 519.812 C 298.581 519.305, 298.052 518.805, 297.556 518.329 C 297.104 517.895, 296.665 517.476, 296.269 517.072 C 295.917 516.712, 295.584 516.357, 295.292 516.028 C 295.042 515.747, 294.799 515.478, 294.616 515.228 C 294.469 515.027, 294.317 514.829, 294.257 514.657 C 294.215 514.537, 294.175 514.394, 294.221 514.323 C 294.263 514.257, 294.389 514.236, 294.500 514.232 C 294.660 514.227, 294.877 514.312, 295.094 514.384 C 295.369 514.475, 295.684 514.614, 296.008 514.763 C 296.389 514.938, 296.801 515.155, 297.228 515.381 C 297.710 515.635, 298.226 515.917, 298.755 516.217 C 299.335 516.547, 299.942 516.912, 300.568 517.284 C 301.244 517.686, 301.952 518.108, 302.671 518.550 C 303.438 519.022, 304.227 519.523, 305.033 520.034 C 305.883 520.573, 306.759 521.130, 307.646 521.705 C 308.574 522.307, 309.521 522.935, 310.484 523.569 C 311.483 524.229, 312.503 524.905, 313.536 525.590 C 314.602 526.298, 315.687 527.021, 316.784 527.750 C 317.909 528.499, 319.055 529.254, 320.205 530.025 C 321.380 530.813, 322.565 531.617, 323.758 532.426 C 324.971 533.249, 326.194 534.086, 327.423 534.921 C 328.667 535.766, 329.923 536.612, 331.177 537.468 C 332.440 538.329, 333.705 539.204, 334.972 540.072 C 336.242 540.942, 337.517 541.814, 338.788 542.681 C 340.055 543.545, 341.324 544.412, 342.588 545.267 C 343.842 546.116, 345.096 546.961, 346.342 547.793 C 347.569 548.613, 348.797 549.423, 350.008 550.223 C 351.194 551.007, 352.369 551.791, 353.535 552.546 C 354.672 553.283, 355.784 553.999, 356.917 554.703 C 358.046 555.405, 359.183 556.081, 360.319 556.766 C 361.455 557.450, 362.593 558.131, 363.732 558.810 C 364.871 559.489, 366.010 560.167, 367.154 560.837 C 368.297 561.507, 369.445 562.168, 370.594 562.828 C 371.743 563.489, 372.892 564.148, 374.046 564.800 C 375.199 565.451, 376.355 566.095, 377.513 566.739 C 378.671 567.382, 379.829 568.024, 380.991 568.659 C 382.154 569.294, 383.320 569.924, 384.489 570.547 C 385.659 571.170, 386.835 571.780, 388.009 572.395 C 389.182 573.010, 390.352 573.630, 391.528 574.239 C 392.705 574.848, 393.886 575.450, 395.068 576.050 C 396.249 576.650, 397.431 577.250, 398.618 577.839 C 399.805 578.428, 400.998 579.006, 402.191 579.583 C 403.384 580.159, 404.580 580.729, 405.777 581.297 C 406.974 581.865, 408.173 582.428, 409.373 582.990 C 410.574 583.553, 411.776 584.115, 412.981 584.670 C 414.186 585.225, 415.393 585.777, 416.603 586.322 C 417.813 586.867, 419.026 587.406, 420.241 587.940 C 421.456 588.474, 422.673 589.001, 423.892 589.526 C 425.112 590.050, 426.335 590.571, 427.559 591.087 C 428.783 591.602, 430.008 592.113, 431.236 592.619 C 432.465 593.126, 433.698 593.628, 434.930 594.127 C 436.163 594.626, 437.395 595.128, 438.633 595.614 C 439.870 596.100, 441.113 596.572, 442.356 597.045 C 443.599 597.518, 444.843 597.990, 446.091 598.453 C 447.339 598.916, 448.592 599.370, 449.843 599.823 C 451.095 600.276, 452.346 600.729, 453.601 601.172 C 454.856 601.615, 456.115 602.048, 457.373 602.484 C 458.633 602.919, 459.892 603.362, 461.156 603.785 C 462.420 604.207, 463.690 604.612, 464.959 605.017 C 466.228 605.422, 467.498 605.825, 468.772 606.215 C 470.047 606.605, 471.326 606.982, 472.606 607.357 C 473.886 607.731, 475.167 608.101, 476.452 608.463 C 477.737 608.826, 479.025 609.179, 480.314 609.531 C 481.605 609.883, 482.895 610.240, 484.190 610.575 C 485.484 610.910, 486.780 611.225, 488.080 611.540 C 489.384 611.856, 490.694 612.162, 492.003 612.465 C 493.310 612.768, 494.616 613.071, 495.929 613.358 C 497.244 613.645, 498.564 613.920, 499.886 614.186 C 501.208 614.452, 502.530 614.708, 503.858 614.953 C 505.189 615.199, 506.525 615.434, 507.863 615.658 C 509.204 615.882, 510.550 616.097, 511.897 616.297 C 513.244 616.498, 514.595 616.689, 515.947 616.860 C 517.299 617.031, 518.653 617.185, 520.009 617.323 C 521.363 617.460, 522.720 617.587, 524.076 617.688 C 525.429 617.788, 526.782 617.869, 528.136 617.925 C 529.488 617.982, 530.841 618.017, 532.195 618.028 C 533.550 618.039, 534.910 618.027, 536.265 617.991 C 537.619 617.954, 538.973 617.897, 540.322 617.809 C 541.667 617.722, 543.012 617.607, 544.348 617.466 C 545.678 617.325, 547.004 617.162, 548.319 616.964 C 549.628 616.767, 550.931 616.540, 552.221 616.282 C 553.503 616.026, 554.776 615.741, 556.034 615.423 C 557.283 615.107, 558.521 614.764, 559.742 614.384 C 560.954 614.006, 562.154 613.596, 563.334 613.151 C 564.507 612.708, 565.665 612.231, 566.804 611.720 C 567.938 611.211, 569.058 610.666, 570.154 610.090 C 571.245 609.516, 572.319 608.911, 573.366 608.273 C 574.408 607.639, 575.428 606.972, 576.423 606.273 C 577.416 605.576, 578.391 604.848, 579.332 604.085 C 580.271 603.324, 581.182 602.527, 582.062 601.702 C 582.942 600.877, 583.793 600.020, 584.614 599.137 C 585.437 598.252, 586.234 597.338, 586.995 596.399 C 587.756 595.460, 588.486 594.495, 589.179 593.504 C 589.872 592.512, 590.528 591.491, 591.154 590.450 C 591.784 589.406, 592.384 588.338, 592.946 587.249 C 593.511 586.154, 594.041 585.033, 594.534 583.896 C 595.030 582.754, 595.485 581.589, 595.910 580.414 C 596.337 579.234, 596.733 578.037, 597.090 576.828 C 597.449 575.613, 597.770 574.381, 598.058 573.139 C 598.347 571.891, 598.599 570.629, 598.822 569.359 C 599.047 568.082, 599.243 566.792, 599.403 565.497 C 599.564 564.196, 599.688 562.889, 599.786 561.573 C 599.885 560.247, 599.956 558.908, 599.994 557.572 C 600.033 556.233, 600.036 554.892, 600.015 553.550 C 599.995 552.204, 599.943 550.855, 599.871 549.506 C 599.797 548.154, 599.698 546.799, 599.576 545.447 C 599.455 544.092, 599.310 542.737, 599.142 541.385 C 598.974 540.032, 598.779 538.682, 598.566 537.334 C 598.354 535.984, 598.120 534.631, 597.868 533.289 C 597.616 531.953, 597.344 530.627, 597.057 529.300 C 596.770 527.972, 596.462 526.644, 596.144 525.323 C 595.826 524.005, 595.494 522.691, 595.147 521.381 C 594.801 520.073, 594.438 518.768, 594.067 517.470 C 593.696 516.174, 593.316 514.883, 592.921 513.597 C 592.526 512.313, 592.118 511.033, 591.696 509.758 C 591.274 508.484, 590.832 507.217, 590.387 505.952 C 589.942 504.686, 589.491 503.423, 589.028 502.165 C 588.566 500.910, 588.096 499.659, 587.614 498.414 C 587.132 497.171, 586.633 495.934, 586.135 494.700 C 585.637 493.468, 585.136 492.239, 584.625 491.016 C 584.114 489.794, 583.597 488.578, 583.068 487.364 C 582.539 486.149, 582.002 484.936, 581.452 483.729 C 580.902 482.522, 580.338 481.320, 579.768 480.121 C 579.197 478.920, 578.617 477.723, 578.029 476.531 C 577.439 475.338, 576.838 474.151, 576.234 472.965 C 575.628 471.779, 575.017 470.594, 574.398 469.414 C 573.780 468.234, 573.152 467.058, 572.521 465.884 C 571.890 464.710, 571.255 463.538, 570.612 462.370 C 569.970 461.204, 569.320 460.043, 568.667 458.883 C 568.014 457.724, 567.358 456.568, 566.695 455.415 C 566.032 454.261, 565.364 453.110, 564.688 451.963 C 564.012 450.816, 563.327 449.675, 562.640 448.535 C 561.953 447.394, 561.267 446.252, 560.567 445.119 C 559.868 443.986, 559.155 442.859, 558.442 441.735 C 557.728 440.612, 557.011 439.492, 556.286 438.376 C 555.562 437.262, 554.832 436.152, 554.095 435.045 C 553.357 433.937, 552.612 432.832, 551.861 431.733 C 551.110 430.634, 550.349 429.542, 549.589 428.451 C 548.829 427.359, 548.072 426.267, 547.302 425.183 C 546.531 424.098, 545.751 423.019, 544.965 421.946 C 544.179 420.872, 543.383 419.807, 542.586 418.743 C 541.789 417.680, 540.992 416.617, 540.183 415.563 C 539.373 414.509, 538.553 413.463, 537.730 412.420 C 536.907 411.378, 536.078 410.342, 535.246 409.308 C 534.414 408.274, 533.582 407.240, 532.739 406.215 C 531.896 405.189, 531.043 404.170, 530.190 403.152 C 529.337 402.133, 528.486 401.113, 527.622 400.104 C 526.759 399.094, 525.880 398.097, 525.007 397.095 C 524.133 396.092, 523.261 395.085, 522.380 394.087 C 521.499 393.090, 520.613 392.096, 519.720 391.109 C 518.827 390.122, 517.925 389.143, 517.020 388.166 C 516.113 387.188, 515.200 386.212, 514.282 385.244 C 513.365 384.276, 512.444 383.311, 511.513 382.357 C 510.583 381.402, 509.642 380.459, 508.700 379.517 C 507.757 378.575, 506.812 377.633, 505.857 376.704 C 504.902 375.774, 503.940 374.852, 502.969 373.940 C 501.998 373.030, 501.017 372.131, 500.030 371.238 C 499.043 370.344, 498.050 369.457, 497.047 368.582 C 496.044 367.707, 495.030 366.845, 494.012 365.987 C 492.993 365.127, 491.968 364.273, 490.937 363.426 C 489.907 362.579, 488.874 361.734, 487.829 360.905 C 486.783 360.076, 485.726 359.258, 484.663 358.450 C 483.601 357.641, 482.528 356.847, 481.453 356.055 C 480.376 355.263, 479.296 354.474, 478.206 353.698 C 477.114 352.920, 476.013 352.151, 474.907 351.394 C 473.800 350.638, 472.689 349.888, 471.568 349.156 C 470.447 348.425, 469.316 347.709, 468.178 347.006 C 467.043 346.304, 465.901 345.619, 464.750 344.943 C 463.596 344.266, 462.432 343.598, 461.262 342.949 C 460.094 342.301, 458.919 341.668, 457.734 341.053 C 456.548 340.437, 455.352 339.837, 454.149 339.255 C 452.946 338.674, 451.736 338.109, 450.516 337.563 C 449.295 337.017, 448.062 336.488, 446.825 335.982 C 445.592 335.476, 444.353 334.990, 443.106 334.527 C 441.860 334.064, 440.607 333.619, 439.346 333.202 C 438.087 332.786, 436.819 332.395, 435.546 332.027 C 434.273 331.660, 432.992 331.309, 431.708 330.997 C 430.429 330.686, 429.144 330.408, 427.856 330.156 C 426.573 329.905, 425.285 329.682, 423.995 329.487 C 422.710 329.294, 421.421 329.129, 420.131 328.992 C 418.844 328.855, 417.553 328.741, 416.263 328.667 C 414.977 328.592, 413.687 328.552, 412.402 328.543 C 411.123 328.534, 409.846 328.556, 408.571 328.614 C 407.299 328.672, 406.028 328.763, 404.762 328.890 C 403.499 329.016, 402.239 329.180, 400.986 329.372 C 399.735 329.563, 398.488 329.784, 397.248 330.038 C 396.009 330.291, 394.774 330.578, 393.548 330.892 C 392.323 331.207, 391.105 331.552, 389.896 331.924 C 388.688 332.295, 387.489 332.694, 386.299 333.120 C 385.108 333.548, 383.923 334.004, 382.751 334.486 C 381.577 334.970, 380.415 335.483, 379.261 336.019 C 378.103 336.556, 376.952 337.120, 375.814 337.706 C 374.675 338.292, 373.546 338.899, 372.430 339.536 C 371.309 340.176, 370.202 340.849, 369.105 341.537 C 368.005 342.227, 366.916 342.941, 365.838 343.671 C 364.757 344.404, 363.688 345.156, 362.628 345.928 C 361.564 346.704, 360.511 347.503, 359.468 348.316 C 358.421 349.131, 357.386 349.965, 356.360 350.810 C 355.331 351.657, 354.313 352.518, 353.304 353.392 C 352.291 354.270, 351.288 355.165, 350.294 356.067 C 349.297 356.972, 348.310 357.890, 347.330 358.814 C 346.351 359.739, 345.383 360.676, 344.416 361.615 C 343.449 362.554, 342.486 363.501, 341.529 364.451 C 340.573 365.400, 339.621 366.349, 338.678 367.311 C 337.733 368.273, 336.800 369.248, 335.866 370.221 C 334.932 371.194, 334.003 372.173, 333.074 373.151 C 332.146 374.128, 331.221 375.108, 330.296 376.085 C 329.372 377.061, 328.449 378.035, 327.527 379.011 C 326.605 379.988, 325.684 380.966, 324.764 381.944 C 323.844 382.922, 322.926 383.903, 322.005 384.880 C 321.086 385.856, 320.167 386.833, 319.244 387.804 C 318.323 388.774, 317.400 389.742, 316.473 390.704 C 315.548 391.664, 314.616 392.615, 313.687 393.570 C 312.758 394.525, 311.832 395.484, 310.897 396.432 C 309.962 397.380, 309.019 398.317, 308.076 399.256 C 307.134 400.194, 306.188 401.129, 305.242 402.064 C 304.296 402.998, 303.345 403.927, 302.400 404.863 C 301.455 405.799, 300.517 406.742, 299.571 407.678 C 298.626 408.613, 297.676 409.544, 296.728 410.476 C 295.779 411.409, 294.830 412.340, 293.881 413.272 C 292.931 414.203, 291.979 415.132, 291.031 416.066 C 290.083 416.999, 289.141 417.937, 288.194 418.870 C 287.246 419.803, 286.294 420.732, 285.344 421.662 C 284.394 422.592, 283.443 423.522, 282.493 424.452 C 281.542 425.382, 280.590 426.311, 279.643 427.245 C 278.695 428.178, 277.752 429.115, 276.808 430.051 C 275.863 430.987, 274.920 431.924, 273.975 432.860 C 273.030 433.796, 272.084 434.731, 271.139 435.666 C 270.193 436.601, 269.248 437.537, 268.302 438.470 C 267.355 439.404, 266.405 440.335, 265.458 441.268 C 264.510 442.201, 263.565 443.137, 262.617 444.071 C 261.669 445.004, 260.719 445.936, 259.770 446.869 C 258.821 447.802, 257.872 448.735, 256.924 449.669 C 255.975 450.603, 255.027 451.538, 254.079 452.473 C 253.131 453.408, 252.184 454.344, 251.236 455.279 C 250.287 456.213, 249.336 457.146, 248.389 458.082 C 247.443 459.018, 246.499 459.958, 245.555 460.896 C 244.611 461.835, 243.667 462.774, 242.724 463.713 C 241.782 464.653, 240.842 465.596, 239.898 466.535 C 238.954 467.474, 238.003 468.408, 237.060 469.348 C 236.116 470.288, 235.177 471.234, 234.235 472.176 C 233.294 473.118, 232.353 474.061, 231.408 475.001 C 230.464 475.942, 229.515 476.878, 228.569 477.817 C 227.624 478.756, 226.679 479.696, 225.733 480.636 C 224.788 481.575, 223.841 482.513, 222.898 483.454 C 221.954 484.396, 221.015 485.342, 220.073 486.285 C 219.131 487.228, 218.187 488.168, 217.246 489.111 C 216.305 490.054, 215.367 490.999, 214.427 491.942 C 213.488 492.886, 212.550 493.832, 211.609 494.773 C 210.668 495.714, 209.723 496.652, 208.779 497.589 C 207.834 498.526, 206.888 499.460, 205.942 500.396 C 204.997 501.332, 204.053 502.269, 203.107 503.204 C 202.160 504.139, 201.212 505.071, 200.265 506.006 C 199.319 506.940, 198.374 507.876, 197.428 508.810 C 196.482 509.744, 195.536 510.678, 194.589 511.611 C 193.643 512.545, 192.696 513.478, 191.749 514.410 C 190.802 515.343, 189.854 516.275, 188.907 517.206 C 187.959 518.138, 187.011 519.070, 186.063 520.001 C 185.115 520.932, 184.164 521.861, 183.218 522.793 C 182.272 523.726, 181.329 524.661, 180.387 525.597 C 179.444 526.532, 178.504 527.470, 177.562 528.407 C 176.621 529.343, 175.681 530.282, 174.737 531.215 C 173.793 532.149, 172.843 533.076, 171.897 534.007 C 170.951 534.939, 170.006 535.870, 169.062 536.804 C 168.119 537.738, 167.180 538.677, 166.235 539.611 C 165.291 540.545, 164.342 541.474, 163.395 542.405 C 162.449 543.337, 161.502 544.268, 160.556 545.200 C 159.609 546.131, 158.663 547.062, 157.717 547.994 C 156.770 548.925, 155.824 549.857, 154.878 550.789 C 153.932 551.720, 152.986 552.652, 152.041 553.584 C 151.095 554.516, 150.149 555.448, 149.204 556.380 C 148.258 557.313, 147.313 558.245, 146.368 559.178 C 145.422 560.111, 144.477 561.044, 143.532 561.977 C 142.587 562.911, 141.643 563.845, 140.698 564.779 C 139.753 565.713, 138.809 566.648, 137.864 567.582 C 136.918 568.515, 135.971 569.447, 135.026 570.381 C 134.081 571.316, 133.138 572.252, 132.194 573.188 C 131.249 574.124, 130.305 575.060, 129.361 575.996 C 128.417 576.932, 127.471 577.867, 126.528 578.804 C 125.584 579.741, 124.642 580.679, 123.699 581.618 C 122.756 582.556, 121.814 583.495, 120.871 584.435 C 119.929 585.375, 118.987 586.316, 118.045 587.257 C 117.103 588.198, 116.163 589.142, 115.220 590.082 C 114.276 591.022, 113.327 591.956, 112.384 592.897 C 111.441 593.837, 110.504 594.784, 109.560 595.724 C 108.617 596.665, 107.669 597.600, 106.724 598.538 C 105.778 599.477, 104.831 600.414, 103.888 601.355 C 102.945 602.296, 102.006 603.241, 101.066 604.184 C 100.125 605.128, 99.185 606.071, 98.245 607.016 C 97.306 607.961, 96.370 608.910, 95.430 609.854 C 94.490 610.799, 93.548 611.740, 92.606 612.682 C 91.664 613.625, 90.718 614.563, 89.777 615.507 C 88.836 616.451, 87.899 617.400, 86.960 618.346 C 86.021 619.292, 85.083 620.239, 84.141 621.183 C 83.198 622.126, 82.249 623.063, 81.306 624.006 C 80.362 624.949, 79.422 625.895, 78.480 626.839 C 77.538 627.783, 76.593 628.724, 75.652 629.670 C 74.712 630.615, 73.776 631.566, 72.836 632.512 C 71.896 633.458, 70.954 634.401, 70.012 635.345 C 69.070 636.289, 68.128 637.232, 67.186 638.175 C 66.243 639.118, 65.300 640.060, 64.357 641.002 C 63.414 641.944, 62.469 642.883, 61.527 643.827 C 60.585 644.771, 59.648 645.720, 58.707 646.665 C 57.766 647.610, 56.824 648.553, 55.883 649.497 C 54.941 650.441, 54.005 651.370, 53.058 652.329 C 52.092 653.308, 51.127 654.307, 50.144 655.313 C 49.139 656.342, 48.119 657.387, 47.092 658.436 C 46.050 659.500, 44.997 660.579, 43.937 661.653 C 42.867 662.739, 41.786 663.832, 40.700 664.917 C 39.608 666.006, 38.503 667.092, 37.403 668.177 C 36.304 669.261, 35.202 670.347, 34.102 671.424 C 33.008 672.494, 31.912 673.561, 30.820 674.618 C 29.740 675.663, 28.660 676.703, 27.587 677.730 C 26.530 678.743, 25.476 679.747, 24.431 680.736 C 23.407 681.706, 22.386 682.665, 21.380 683.609 C 20.399 684.531, 19.427 685.444, 18.469 686.337 C 17.539 687.204, 16.618 688.059, 15.713 688.892 C 14.838 689.695, 13.974 690.484, 13.126 691.249 C 12.314 691.982, 11.514 692.702, 10.729 693.391 C 9.983 694.047, 9.245 694.682, 8.529 695.292 C 7.856 695.866, 7.193 696.422, 6.556 696.952 C 5.963 697.445, 5.388 697.926, 4.834 698.371 C 4.326 698.780, 3.830 699.171, 3.360 699.527 C 2.938 699.846, 2.528 700.150, 2.145 700.412 C 1.812 700.640, 1.490 700.856, 1.196 701.021 C 0.957 701.155, 0.721 701.291, 0.522 701.349 C 0.376 701.391, 0.210 701.441, 0.125 701.394 Z"/>
  </g>
</svg>
